<svg width="391" height="308" viewBox="0 0 391 308" fill="none" xmlns="http://www.w3.org/2000/svg">
<path d="M323.579 104.618C322.322 103.534 321.045 102.464 319.747 101.41C320.879 101.539 324.647 101.988 323.706 100.358C323.34 99.7226 320.613 99.818 319.881 99.7606C318.669 99.7557 317.492 99.4448 316.521 98.8735C312.418 96.6508 309.055 93.5349 304.868 91.2998C300.394 88.8723 295.496 86.9701 290.327 85.6531C288.005 85.0813 278.746 82.5547 277.51 85.0197C276.303 87.42 285.635 89.4549 287.733 90.2618C292.484 92.0879 297.133 94.065 301.679 96.1929C306.225 98.3208 310.653 100.591 314.965 103.003C316.833 104.217 318.785 105.348 320.813 106.391C322.722 107.212 325.764 106.501 323.579 104.618Z" fill="#FFC5CB"/>
<path d="M245.729 53.6595C239.73 54.0072 233.915 55.4504 228.747 57.875C226.871 58.7682 224.358 60.1234 226.14 62.0391C227.443 63.4508 229.521 62.8266 231.313 62.5145C229.423 63.1305 226.084 64.7177 227.142 66.6725C228.201 68.6273 230.995 67.5965 232.682 66.8419C230.678 67.8532 227.99 69.3059 228.173 71.4732C228.344 73.4074 230.755 74.3191 232.963 74.3047C235.542 74.2873 238.034 73.1518 240.482 72.6302C243.211 72.0537 246.024 71.76 248.849 71.7565C254.143 71.7348 259.367 72.7121 264.083 74.6066C269.27 76.7071 273.284 80.0818 278.09 82.6228C286.067 86.8414 298.235 87.1401 300.792 78.1147C303.269 69.388 293.658 61.6172 284.718 57.8483C272.657 52.7632 259.011 52.6749 245.729 53.6595Z" fill="#FBAA28"/>
<path d="M248.488 67.4129C245.591 67.1737 242.852 68.5093 240.449 69.5986C234.312 72.3713 228.541 75.6186 223.222 79.2924C214.195 85.6823 206.51 93.158 200.452 101.442C197.683 105.182 195.241 109.066 193.145 113.069C191.604 116.012 190.1 118.964 188.634 121.926C188.261 122.679 186.491 125.117 187.046 125.981C187.907 127.316 189.283 126.045 189.77 125.184C188.496 127.882 191.196 128.179 192.145 126.875C192.166 127.314 192.316 128.502 193.209 128.5C194.282 128.5 194.106 127.939 194.302 127.37C194.413 126.591 194.583 125.817 194.813 125.054C194.929 124.216 195.173 123.392 195.538 122.599C195.557 122.542 195.571 122.482 195.594 122.426C199.957 111.052 209.766 101.576 220.748 93.6791C225.824 90.0737 231.131 86.6754 236.649 83.4977C241.652 80.5819 249.898 77.389 252.506 72.6951C252.866 72.147 253.042 71.5357 253.017 70.9191C252.993 70.3025 252.769 69.701 252.366 69.1718C251.963 68.6426 251.396 68.2033 250.717 67.8954C250.039 67.5876 249.271 67.4215 248.488 67.4129V67.4129Z" fill="#FFC5CB"/>
<path d="M208.593 122.534C207.162 124.146 206.08 125.935 205.392 127.826C204.717 129.204 202.855 130.479 202.496 128.093C201.051 129.559 199.582 128.596 199.961 126.649C199.179 127.325 197.519 128.099 197.166 126.745C196.972 126.004 198.564 124.651 199.046 124.051C201.154 121.427 203.169 118.757 205.276 116.132C209.538 110.71 214.188 105.483 219.204 100.478C228.159 91.7203 239.206 83.6579 252.547 79.2946C255.358 78.3706 258.643 77.5944 261.569 78.6786C264.844 79.8972 265.558 82.7031 263.71 85.0685C261.27 88.1906 255.611 90.0438 251.619 91.7542C245.574 94.3434 239.332 96.6411 233.831 99.9398C223.69 106.024 215.887 114.415 208.593 122.534Z" fill="#FFC5CB"/>
<path d="M240.822 81.0087C240.554 81.317 240.384 81.6721 240.328 82.0434C240.273 82.4147 240.332 82.7911 240.502 83.1402C240.673 83.4893 240.948 83.8006 241.305 84.0472C241.661 84.2938 242.089 84.4684 242.55 84.5559C244.81 85.0312 248.186 84.2725 250.541 84.216C255.782 84.063 261.009 84.7302 265.921 86.179C268.858 87.0076 271.694 86.6164 274.783 86.8361C276.418 86.9531 278.302 87.5466 279.908 87.5548C281.574 87.3914 283.214 87.0903 284.801 86.6564C286.286 86.3844 287.773 86.1513 289.285 85.9891C290.233 85.8864 293.065 86.0651 293.757 85.6811C295.242 84.8598 295.828 80.1905 296.244 78.8856C297.171 75.9873 299.476 72.5439 296.829 69.8817C294.677 67.7175 290.988 66.4321 287.849 65.4229C279.524 62.594 270.427 61.4641 261.401 62.1376C258.262 62.4223 255.184 63.0252 252.242 63.9312C250.78 64.3883 249.364 64.9308 248.005 65.5543C247.358 65.7858 246.755 66.0879 246.214 66.4516C245.444 67.2555 245.831 66.6056 245.874 67.5522C245.986 69.97 246.616 71.7349 245.583 74.2143C244.438 76.6545 242.833 78.945 240.822 81.0087V81.0087Z" fill="#FF724C"/>
<path d="M330.582 92.8768C325.604 85.9162 318.863 79.8358 310.777 75.0128C306.699 72.5616 302.324 70.4336 297.715 68.6598C294.96 67.5992 286.66 63.6681 283.92 65.551C280.045 68.2132 290.74 71.5786 292.811 72.5529C297.728 74.866 302.579 77.2756 307.211 79.9305C311.804 82.5223 316.105 85.4199 320.068 88.5915C320.521 88.854 320.902 89.186 321.189 89.5677C321.475 89.9493 321.66 90.3727 321.733 90.8122C321.847 91.5966 321.122 92.46 321.304 93.2033C321.888 95.5728 323.735 93.3532 324.079 92.1109C325.145 93.1057 326.84 95.0277 328.641 95.0882C328.988 95.117 329.339 95.0716 329.656 94.9568C329.973 94.842 330.245 94.6621 330.444 94.4359C330.642 94.2097 330.76 93.9455 330.784 93.6712C330.808 93.3969 330.738 93.1225 330.582 92.8768V92.8768Z" fill="#FFC5CB"/>
<path d="M282.63 71.3532C282.922 70.9924 283.072 70.5723 283.064 70.1448C283.064 67.1675 277.227 67.2126 277.227 70.1448C277.205 70.571 277.351 70.992 277.645 71.3502C277.939 71.7084 278.367 71.9863 278.869 72.1458C275.707 73.1725 273.418 75.0133 273.418 77.6805C273.418 86.3405 297.491 86.3425 297.491 77.6805C297.491 72.6694 289.425 70.5647 282.63 71.3532Z" fill="#FFC5CB"/>
<path d="M271.251 57.5399C274.058 56.1118 281.784 59.3191 284.274 60.3909C288.329 62.0881 291.912 64.4074 294.812 67.2121C297.552 69.8853 299.204 73.1475 299.553 76.5722C299.802 79.4079 299.206 84.0535 295.704 85.7096C289.904 88.4559 285.843 73.3249 283.988 70.5149C281.852 67.2799 278.555 65.3241 274.754 63.3724C272.806 62.3775 267.382 59.663 271.251 57.5399Z" fill="#FBAA28"/>
<path d="M283.574 82.5213C282.792 79.2626 281.923 76.0102 281.228 72.7392C280.811 70.7731 281.02 68.8071 283.444 67.6531C286.638 66.1316 290.26 67.7558 291.201 70.3871C292.204 73.6126 292.987 76.8779 293.547 80.1692C293.938 82.0367 293.852 83.8077 291.693 85.0479C290.985 85.4422 290.165 85.6914 289.304 85.773C288.444 85.8546 287.571 85.7659 286.766 85.5151C285.96 85.2643 285.246 84.8592 284.689 84.3365C284.131 83.8138 283.748 83.1899 283.574 82.5213Z" fill="#9DF4CF"/>
<path d="M286.359 68.0372C286.939 67.0225 287.904 66.1745 289.121 65.6103C290.339 65.0461 291.749 64.7935 293.156 64.8874C294.313 64.9644 294.307 63.5425 293.156 63.4655C291.355 63.3732 289.563 63.7283 288.031 64.4806C286.5 65.233 285.306 66.3448 284.619 67.6594C284.558 67.8411 284.59 68.0344 284.708 68.198C284.825 68.3615 285.02 68.4822 285.249 68.5342C285.48 68.5798 285.724 68.5537 285.931 68.4611C286.137 68.3686 286.291 68.2167 286.359 68.0372V68.0372Z" fill="#9DF4CF"/>
<path d="M284.804 74.8506C284.548 74.8579 284.305 74.9433 284.127 75.0887C283.949 75.2341 283.85 75.4283 283.85 75.6303C283.85 75.8324 283.949 76.0266 284.127 76.172C284.305 76.3174 284.548 76.4028 284.804 76.4101C285.061 76.4028 285.303 76.3174 285.481 76.172C285.659 76.0266 285.759 75.8324 285.759 75.6303C285.759 75.4283 285.659 75.2341 285.481 75.0887C285.303 74.9433 285.061 74.8579 284.804 74.8506V74.8506Z" fill="black"/>
<path d="M286.8 81.7275C286.543 81.7349 286.301 81.8202 286.123 81.9657C285.945 82.1111 285.845 82.3052 285.845 82.5073C285.845 82.7093 285.945 82.9035 286.123 83.0489C286.301 83.1943 286.543 83.2797 286.8 83.287C287.056 83.2797 287.299 83.1943 287.477 83.0489C287.655 82.9035 287.754 82.7093 287.754 82.5073C287.754 82.3052 287.655 82.1111 287.477 81.9657C287.299 81.8202 287.056 81.7349 286.8 81.7275V81.7275Z" fill="black"/>
<path d="M285.66 73.2874C286.099 73.3958 286.498 73.5865 286.823 73.8431C287.148 74.0997 287.389 74.4145 287.526 74.7606C287.737 75.2822 288.784 75.0594 288.569 74.5337C288.377 74.0472 288.038 73.6046 287.582 73.2441C287.125 72.8835 286.564 72.6158 285.946 72.464C285.282 72.2956 284.996 73.119 285.658 73.2853L285.66 73.2874Z" fill="black"/>
<path d="M289.184 80.552L289.552 82.0263C289.683 82.5653 290.732 82.3343 290.595 81.7994L290.226 80.3251C290.096 79.7872 289.053 80.0171 289.184 80.552V80.552Z" fill="black"/>
<path d="M225.346 98.123C225.234 98.123 225.126 98.1583 225.046 98.2211C224.966 98.2839 224.921 98.369 224.921 98.4577C224.921 98.5465 224.966 98.6316 225.046 98.6944C225.126 98.7572 225.234 98.7924 225.346 98.7924C225.459 98.7924 225.567 98.7572 225.647 98.6944C225.726 98.6316 225.771 98.5465 225.771 98.4577C225.771 98.369 225.726 98.2839 225.647 98.2211C225.567 98.1583 225.459 98.123 225.346 98.123V98.123Z" fill="#F36B73"/>
<path d="M227.846 101.006C227.738 101.011 227.636 101.048 227.561 101.11C227.486 101.172 227.445 101.254 227.445 101.34C227.445 101.426 227.486 101.508 227.561 101.57C227.636 101.632 227.738 101.669 227.846 101.674C227.955 101.669 228.057 101.632 228.131 101.57C228.206 101.508 228.248 101.426 228.248 101.34C228.248 101.254 228.206 101.172 228.131 101.11C228.057 101.048 227.955 101.011 227.846 101.006V101.006Z" fill="#F36B73"/>
<path d="M225.185 100.613C225.076 100.618 224.974 100.655 224.899 100.717C224.825 100.78 224.783 100.862 224.783 100.947C224.783 101.033 224.825 101.115 224.899 101.177C224.974 101.24 225.076 101.277 225.185 101.282C225.293 101.277 225.395 101.24 225.47 101.177C225.544 101.115 225.586 101.033 225.586 100.947C225.586 100.862 225.544 100.78 225.47 100.717C225.395 100.655 225.293 100.618 225.185 100.613Z" fill="#F36B73"/>
<path d="M223.688 103.756C223.58 103.761 223.478 103.798 223.403 103.86C223.329 103.922 223.287 104.004 223.287 104.09C223.287 104.176 223.329 104.258 223.403 104.32C223.478 104.382 223.58 104.419 223.688 104.424C223.797 104.419 223.899 104.382 223.974 104.32C224.048 104.258 224.09 104.176 224.09 104.09C224.09 104.004 224.048 103.922 223.974 103.86C223.899 103.798 223.797 103.761 223.688 103.756V103.756Z" fill="#F36B73"/>
<path d="M216.205 95.2412C216.096 95.2459 215.994 95.2832 215.919 95.3454C215.845 95.4075 215.803 95.4898 215.803 95.5754C215.803 95.661 215.845 95.7433 215.919 95.8054C215.994 95.8676 216.096 95.9048 216.205 95.9096C216.313 95.9048 216.415 95.8676 216.49 95.8054C216.564 95.7433 216.606 95.661 216.606 95.5754C216.606 95.4898 216.564 95.4075 216.49 95.3454C216.415 95.2832 216.313 95.2459 216.205 95.2412V95.2412Z" fill="#F36B73"/>
<path d="M213.378 91.5791C213.269 91.5838 213.167 91.6211 213.093 91.6833C213.018 91.7454 212.977 91.8277 212.977 91.9133C212.977 91.9988 213.018 92.0811 213.093 92.1433C213.167 92.2054 213.269 92.2427 213.378 92.2475C213.486 92.2427 213.588 92.2054 213.663 92.1433C213.738 92.0811 213.779 91.9988 213.779 91.9133C213.779 91.8277 213.738 91.7454 213.663 91.6833C213.588 91.6211 213.486 91.5838 213.378 91.5791V91.5791Z" fill="#F36B73"/>
<path d="M216.703 92.0967C216.594 92.1014 216.492 92.1387 216.418 92.2008C216.343 92.263 216.301 92.3453 216.301 92.4309C216.301 92.5164 216.343 92.5987 216.418 92.6609C216.492 92.723 216.594 92.7603 216.703 92.765C216.811 92.7603 216.913 92.723 216.988 92.6609C217.062 92.5987 217.104 92.5164 217.104 92.4309C217.104 92.3453 217.062 92.263 216.988 92.2008C216.913 92.1387 216.811 92.1014 216.703 92.0967Z" fill="#F36B73"/>
<path d="M213.044 94.4531C212.936 94.4579 212.834 94.4951 212.759 94.5573C212.685 94.6194 212.643 94.7017 212.643 94.7873C212.643 94.8729 212.685 94.9552 212.759 95.0173C212.834 95.0795 212.936 95.1167 213.044 95.1215C213.153 95.1167 213.255 95.0795 213.33 95.0173C213.404 94.9552 213.446 94.8729 213.446 94.7873C213.446 94.7017 213.404 94.6194 213.33 94.5573C213.255 94.4951 213.153 94.4579 213.044 94.4531V94.4531Z" fill="#F36B73"/>
<path d="M295.865 88.5605C295.756 88.5653 295.654 88.6026 295.58 88.6647C295.505 88.7269 295.463 88.8092 295.463 88.8947C295.463 88.9803 295.505 89.0626 295.58 89.1247C295.654 89.1869 295.756 89.2242 295.865 89.2289C295.973 89.2242 296.075 89.1869 296.15 89.1247C296.224 89.0626 296.266 88.9803 296.266 88.8947C296.266 88.8092 296.224 88.7269 296.15 88.6647C296.075 88.6026 295.973 88.5653 295.865 88.5605V88.5605Z" fill="#F36B73"/>
<path d="M296.696 91.1807C296.587 91.1854 296.485 91.2227 296.411 91.2848C296.336 91.347 296.294 91.4293 296.294 91.5149C296.294 91.6004 296.336 91.6827 296.411 91.7449C296.485 91.807 296.587 91.8443 296.696 91.849C296.804 91.8443 296.906 91.807 296.981 91.7449C297.056 91.6827 297.097 91.6004 297.097 91.5149C297.097 91.4293 297.056 91.347 296.981 91.2848C296.906 91.2227 296.804 91.1854 296.696 91.1807V91.1807Z" fill="#F36B73"/>
<path d="M299.855 90.2637C299.747 90.2684 299.645 90.3057 299.57 90.3678C299.496 90.43 299.454 90.5123 299.454 90.5978C299.454 90.6834 299.496 90.7657 299.57 90.8278C299.645 90.89 299.747 90.9273 299.855 90.932C299.964 90.9273 300.066 90.89 300.141 90.8278C300.215 90.7657 300.257 90.6834 300.257 90.5978C300.257 90.5123 300.215 90.43 300.141 90.3678C300.066 90.3057 299.964 90.2684 299.855 90.2637Z" fill="#F36B73"/>
<path d="M308.336 77.5557C308.227 77.5604 308.125 77.5977 308.051 77.6598C307.976 77.722 307.935 77.8043 307.935 77.8898C307.935 77.9754 307.976 78.0577 308.051 78.1198C308.125 78.182 308.227 78.2193 308.336 78.224C308.444 78.2193 308.546 78.182 308.621 78.1198C308.696 78.0577 308.737 77.9754 308.737 77.8898C308.737 77.8043 308.696 77.722 308.621 77.6598C308.546 77.5977 308.444 77.5604 308.336 77.5557Z" fill="#F36B73"/>
<path d="M307.172 76.6387C307.064 76.6434 306.962 76.6807 306.887 76.7428C306.813 76.805 306.771 76.8873 306.771 76.9729C306.771 77.0584 306.813 77.1407 306.887 77.2029C306.962 77.265 307.064 77.3023 307.172 77.307C307.281 77.3023 307.383 77.265 307.457 77.2029C307.532 77.1407 307.574 77.0584 307.574 76.9729C307.574 76.8873 307.532 76.805 307.457 76.7428C307.383 76.6807 307.281 76.6434 307.172 76.6387V76.6387Z" fill="#F36B73"/>
<path d="M309.167 75.3291C309.059 75.3338 308.957 75.3711 308.882 75.4333C308.808 75.4954 308.766 75.5777 308.766 75.6633C308.766 75.7488 308.808 75.8311 308.882 75.8933C308.957 75.9554 309.059 75.9927 309.167 75.9975C309.276 75.9927 309.378 75.9554 309.453 75.8933C309.527 75.8311 309.569 75.7488 309.569 75.6633C309.569 75.5777 309.527 75.4954 309.453 75.4333C309.378 75.3711 309.276 75.3338 309.167 75.3291V75.3291Z" fill="#F36B73"/>
<path d="M310.831 75.8535C310.722 75.8583 310.62 75.8955 310.545 75.9577C310.471 76.0198 310.429 76.1021 310.429 76.1877C310.429 76.2733 310.471 76.3556 310.545 76.4177C310.62 76.4799 310.722 76.5171 310.831 76.5219C310.939 76.5171 311.041 76.4799 311.116 76.4177C311.19 76.3556 311.232 76.2733 311.232 76.1877C311.232 76.1021 311.19 76.0198 311.116 75.9577C311.041 75.8955 310.939 75.8583 310.831 75.8535V75.8535Z" fill="#F36B73"/>
<path d="M280.885 78.4094C280.834 77.352 281.026 74.5399 279.127 74.4485C277.278 74.3592 276.26 76.9577 276.355 78.0521C276.638 81.1219 281.081 82.435 280.885 78.4094Z" fill="white"/>
<path d="M245.535 46.7925C248.078 45.7434 250.892 45.1691 253.762 45.1139C253.901 45.1085 254.032 45.0612 254.128 44.9818C254.224 44.9024 254.277 44.797 254.277 44.6873C254.277 44.5777 254.224 44.4722 254.128 44.3928C254.032 44.3134 253.901 44.2661 253.762 44.2607C250.701 44.3205 247.699 44.935 244.989 46.0564C244.371 46.311 244.919 47.0471 245.535 46.7925V46.7925Z" fill="black"/>
<path d="M253.661 49.0553C256.751 48.7063 259.881 48.6313 262.992 48.8315C263.687 48.8757 263.683 48.0215 262.992 47.9784C259.784 47.7798 256.557 47.8648 253.373 48.2319C252.686 48.311 252.982 49.1334 253.661 49.0533V49.0553Z" fill="black"/>
<path d="M164.782 144.55L177.264 136.618C177.806 136.273 177.035 135.672 176.497 136.014L164.016 143.947C163.474 144.292 164.245 144.891 164.782 144.55V144.55Z" fill="black"/>
<path d="M157.254 135.828L174.442 132.89C175.123 132.774 174.833 131.952 174.154 132.069L156.966 135.006C156.284 135.122 156.575 135.945 157.254 135.828Z" fill="black"/>
<path d="M163.242 123.611L174.683 130.174C175.247 130.497 175.788 129.758 175.23 129.438L163.788 122.874C163.225 122.55 162.683 123.29 163.242 123.611V123.611Z" fill="black"/>
<path d="M361.776 182.405C359.039 182.734 356.37 183.675 353.55 183.476C351.103 183.303 349.379 182.244 347.445 181.169C342.694 178.541 340.198 180.103 335.496 181.737C330.943 183.319 328.011 181.252 324.631 179.067C320.893 176.649 317.703 176.241 313.299 177.896C309.389 179.365 305.87 180.85 302.05 178.359C299.169 176.484 297.191 173.244 292.822 173.732C288.391 174.227 285.77 177.291 280.91 175.984C276.942 174.918 273.975 172.172 269.831 171.44C265.168 170.619 262.043 173.391 257.877 174.315C252.601 175.496 250.667 171.315 246.077 170.746C241.906 170.233 238.898 173.586 234.859 173.38C230.493 173.157 229.913 168.19 225.127 168.898C222.759 169.249 221.209 170.941 218.935 171.443C217.608 171.736 213.739 171.449 214.466 169.643C210.989 171.498 207.579 173.204 204.102 175.059C205.194 175.594 206.225 176.291 207.442 176.92C207.562 176.977 207.655 177.063 207.708 177.165C207.761 177.267 207.77 177.38 207.735 177.486C206.993 179.404 207.161 181.089 204.998 182.357C202.177 184.01 199.133 185.473 196.257 187.07C192.777 188.945 189.474 191.017 186.376 193.27C184.279 194.96 181.928 196.443 179.375 197.685C179.337 197.76 179.275 197.826 179.196 197.878C179.117 197.929 179.023 197.964 178.922 197.98C178.821 197.996 178.717 197.991 178.619 197.967C178.521 197.943 178.432 197.9 178.361 197.842C176.038 195.965 173.367 194.377 170.439 193.132L123.203 218.338L110.203 225.275L188.427 233.644L227.609 237.836L246.455 239.852L256.208 240.895C258.648 241.157 262.898 242.352 265.253 241.862C266.458 241.394 267.576 240.798 268.575 240.089L277.335 235.414L305.11 220.594L363.108 189.643C365.377 188.601 367.554 187.44 369.625 186.168C373.274 183.568 364.208 182.113 361.776 182.405Z" fill="#9DF4CF"/>
<path d="M209.34 190.939C211.665 191.818 214.326 191.971 216.788 191.367C217.452 191.205 217.169 190.381 216.5 190.545C214.32 191.094 211.957 190.972 209.886 190.205C209.259 189.971 208.713 190.706 209.34 190.941V190.939Z" fill="black"/>
<path d="M231.653 188.987L237.586 188.876C237.725 188.87 237.856 188.823 237.952 188.744C238.048 188.664 238.102 188.559 238.102 188.449C238.102 188.339 238.048 188.234 237.952 188.155C237.856 188.075 237.725 188.028 237.586 188.022L231.653 188.133C231.514 188.139 231.383 188.186 231.287 188.265C231.191 188.345 231.138 188.45 231.138 188.56C231.138 188.67 231.191 188.775 231.287 188.854C231.383 188.934 231.514 188.981 231.653 188.987V188.987Z" fill="black"/>
<path d="M236.196 194.639L243.226 195.028C243.922 195.066 243.92 194.212 243.226 194.175L236.196 193.785C235.5 193.747 235.504 194.601 236.196 194.639Z" fill="black"/>
<path d="M270.678 191.362L278.933 191.519C279.072 191.514 279.203 191.466 279.299 191.387C279.395 191.307 279.448 191.202 279.448 191.092C279.448 190.983 279.395 190.877 279.299 190.798C279.203 190.718 279.072 190.671 278.933 190.666L270.678 190.51C270.534 190.51 270.397 190.555 270.295 190.635C270.194 190.714 270.137 190.823 270.137 190.936C270.137 191.049 270.194 191.157 270.295 191.237C270.397 191.317 270.534 191.362 270.678 191.362Z" fill="black"/>
<path d="M271.958 197.595L281.31 198.239C282.005 198.287 282 197.434 281.31 197.386L271.958 196.742C271.263 196.695 271.267 197.548 271.958 197.595Z" fill="black"/>
<path d="M227.91 206.064L237.775 206.03C237.914 206.025 238.045 205.977 238.141 205.898C238.237 205.818 238.291 205.713 238.291 205.603C238.291 205.494 238.237 205.388 238.141 205.309C238.045 205.229 237.914 205.182 237.775 205.177L227.91 205.211C227.771 205.216 227.64 205.263 227.544 205.343C227.448 205.422 227.395 205.528 227.395 205.637C227.395 205.747 227.448 205.852 227.544 205.932C227.64 206.011 227.771 206.058 227.91 206.064Z" fill="black"/>
<path d="M244.134 212.617L252.452 212.402C253.146 212.385 253.15 211.532 252.452 211.549L244.134 211.764C243.439 211.781 243.435 212.634 244.134 212.617Z" fill="black"/>
<path d="M260.276 207.352L266.471 208.015C267.152 208.088 267.448 207.266 266.759 207.194L260.564 206.532C259.882 206.459 259.588 207.28 260.276 207.353V207.352Z" fill="black"/>
<path d="M275.538 214.873C278.901 215.316 282.336 215.299 285.692 214.823C286.377 214.728 286.083 213.905 285.404 214.002C282.238 214.449 278.998 214.465 275.826 214.05C275.144 213.961 274.851 214.782 275.538 214.872V214.873Z" fill="black"/>
<path d="M166.361 202.088L173.399 202.463C174.095 202.501 174.093 201.642 173.399 201.61L166.361 201.235C165.667 201.198 165.669 202.051 166.361 202.088Z" fill="black"/>
<path d="M265.407 226.437L277.981 226.689C278.12 226.683 278.251 226.636 278.347 226.557C278.443 226.477 278.497 226.372 278.497 226.262C278.497 226.152 278.443 226.047 278.347 225.968C278.251 225.888 278.12 225.841 277.981 225.836L265.407 225.584C265.268 225.589 265.137 225.637 265.041 225.716C264.945 225.795 264.891 225.901 264.891 226.011C264.891 226.12 264.945 226.226 265.041 226.305C265.137 226.384 265.268 226.432 265.407 226.437V226.437Z" fill="black"/>
<path d="M212.071 222.495L223.362 223.335C224.055 223.386 224.05 222.533 223.362 222.482L212.071 221.642C211.377 221.59 211.381 222.444 212.071 222.495Z" fill="black"/>
<path d="M240.247 220.296L245.404 220.112C246.099 220.088 246.103 219.235 245.404 219.259L240.247 219.443C239.552 219.468 239.548 220.321 240.247 220.296Z" fill="black"/>
<path d="M314.382 203.006L321.801 203.433C322.497 203.473 322.493 202.62 321.801 202.58L314.382 202.153C313.688 202.113 313.69 202.966 314.382 203.006Z" fill="black"/>
<path d="M210.697 202.15L217.279 202.854C217.96 202.927 218.256 202.106 217.567 202.033L210.985 201.329C210.303 201.256 210.009 202.077 210.697 202.15Z" fill="black"/>
<path d="M193.222 210.646L204.699 210.397C204.838 210.392 204.969 210.344 205.065 210.265C205.161 210.186 205.214 210.08 205.214 209.971C205.214 209.861 205.161 209.755 205.065 209.676C204.969 209.597 204.838 209.549 204.699 209.544L193.222 209.793C193.078 209.793 192.941 209.838 192.839 209.918C192.738 209.998 192.681 210.106 192.681 210.219C192.681 210.332 192.738 210.441 192.839 210.521C192.941 210.601 193.078 210.646 193.222 210.646V210.646Z" fill="black"/>
<path d="M229.293 214.065L236.774 214.132C236.913 214.126 237.044 214.079 237.14 214C237.236 213.92 237.29 213.815 237.29 213.705C237.29 213.596 237.236 213.49 237.14 213.411C237.044 213.331 236.913 213.284 236.774 213.279L229.293 213.212C229.154 213.217 229.023 213.265 228.927 213.344C228.831 213.423 228.777 213.529 228.777 213.639C228.777 213.748 228.831 213.854 228.927 213.933C229.023 214.012 229.154 214.06 229.293 214.065V214.065Z" fill="black"/>
<path d="M205.937 230.607L215.799 230.653C215.938 230.648 216.069 230.601 216.165 230.521C216.261 230.442 216.315 230.336 216.315 230.227C216.315 230.117 216.261 230.012 216.165 229.932C216.069 229.853 215.938 229.805 215.799 229.8L205.937 229.754C205.798 229.759 205.667 229.807 205.571 229.886C205.475 229.965 205.421 230.071 205.421 230.18C205.421 230.29 205.475 230.396 205.571 230.475C205.667 230.554 205.798 230.602 205.937 230.607V230.607Z" fill="black"/>
<path d="M247.663 231.026L254.049 230.604C254.739 230.559 254.745 229.706 254.049 229.751L247.663 230.173C246.974 230.218 246.967 231.071 247.663 231.026Z" fill="black"/>
<path d="M152.087 220.807L160.669 221.346C161.365 221.389 161.361 220.536 160.669 220.493L152.087 219.954C151.392 219.911 151.396 220.764 152.087 220.807Z" fill="black"/>
<path d="M162.803 211.295L170.614 211.729C171.31 211.767 171.306 210.914 170.614 210.876L162.803 210.442C162.107 210.404 162.11 211.257 162.803 211.295V211.295Z" fill="black"/>
<path d="M292.438 205.863H300.311C300.45 205.858 300.582 205.81 300.677 205.731C300.773 205.651 300.827 205.546 300.827 205.436C300.827 205.327 300.773 205.221 300.677 205.142C300.582 205.062 300.45 205.015 300.311 205.01H292.438C292.299 205.015 292.168 205.062 292.072 205.142C291.976 205.221 291.922 205.327 291.922 205.436C291.922 205.546 291.976 205.651 292.072 205.731C292.168 205.81 292.299 205.858 292.438 205.863Z" fill="black"/>
<path d="M172.783 236.361C170.197 235.735 167.507 235.412 164.801 235.405C162.335 235.343 159.879 235.684 157.589 236.408C156.667 236.679 155.834 237.109 155.15 237.666C154.465 238.223 153.947 238.893 153.633 239.627C153.393 240.379 153.397 241.166 153.646 241.916C153.896 242.666 154.382 243.354 155.059 243.917C156.688 245.235 158.707 246.213 160.936 246.764C163.477 247.471 166.139 247.874 168.833 247.959C171.345 248.095 173.866 247.851 176.262 247.24C177.227 247.024 178.126 246.657 178.906 246.159C179.685 245.662 180.329 245.045 180.797 244.347C180.998 243.991 181.136 243.616 181.208 243.231C181.209 243.211 181.209 243.192 181.208 243.172C181.208 243.153 181.227 243.138 181.231 243.118C181.827 239.403 176.52 237.275 172.783 236.361ZM170.665 247.121C168.156 247.17 165.651 246.937 163.224 246.431C160.997 246.021 158.895 245.266 157.041 244.21C156.319 243.831 155.716 243.326 155.278 242.735C154.84 242.145 154.579 241.483 154.514 240.801C154.541 240.134 154.79 239.484 155.238 238.918C155.685 238.351 156.315 237.888 157.062 237.575C158.942 236.776 161.035 236.337 163.171 236.295C165.669 236.177 168.175 236.343 170.613 236.786C172.903 237.157 175.088 237.852 177.061 238.84C177.837 239.189 178.513 239.661 179.045 240.226C179.578 240.792 179.955 241.439 180.153 242.125C180.203 242.432 180.203 242.742 180.153 243.049C179.497 246.342 174.125 247.049 170.665 247.119V247.121Z" fill="black"/>
<path d="M282.986 183.221L289.181 183.884C289.863 183.957 290.157 183.135 289.469 183.062L283.274 182.399C282.593 182.326 282.298 183.149 282.986 183.22V183.221Z" fill="black"/>
<path d="M298.251 190.742C301.614 191.185 305.049 191.169 308.405 190.693C309.091 190.598 308.796 189.776 308.117 189.872C304.951 190.319 301.712 190.336 298.539 189.92C297.857 189.83 297.564 190.652 298.251 190.742Z" fill="black"/>
<path d="M232.332 180.752L238.527 181.415C239.209 181.488 239.504 180.665 238.815 180.594L232.62 179.931C231.939 179.858 231.644 180.68 232.332 180.753V180.752Z" fill="black"/>
<path d="M330.403 191.166C333.766 191.608 337.201 191.592 340.557 191.117C341.243 191.021 340.948 190.193 340.269 190.296C337.103 190.743 333.864 190.76 330.691 190.345C330.009 190.255 329.716 191.076 330.403 191.167V191.166Z" fill="black"/>
<path d="M207.759 177.113C207.73 177.045 207.676 176.985 207.604 176.941C198.582 171.479 187.448 168.63 176.073 168.874C172.916 168.908 169.784 169.209 166.637 169.367C163.292 169.535 159.94 169.617 156.589 169.651C149.856 169.718 143.125 169.585 136.388 169.525C122.656 169.401 108.915 169.499 95.1814 169.518C81.3113 169.537 67.4386 169.6 53.5712 169.826C39.7715 170.056 25.9744 170.45 12.1982 171.133C10.4752 171.219 8.75302 171.309 7.03175 171.403C6.34098 171.441 6.33577 172.294 7.03175 172.256C20.6711 171.509 34.3314 171.054 47.9981 170.781C61.6649 170.508 75.3368 170.413 89.0075 170.379C102.678 170.345 116.362 170.366 130.04 170.346C143.319 170.328 156.635 170.927 169.887 170.024C175.673 169.532 181.518 169.69 187.248 170.495C192.865 171.356 198.23 173.032 203.07 175.436C204.264 176.035 205.416 176.682 206.533 177.364L197.67 182.543L183.018 191.111L179.922 192.923C171.794 188.004 161.904 185.232 151.66 185.001C148.77 184.941 145.88 185.09 143.024 185.444C142.337 185.528 142.633 186.351 143.312 186.266C153.29 185.08 163.488 186.432 172.423 190.124C174.875 191.136 177.206 192.321 179.387 193.664C179.074 194.9 178.844 196.149 178.696 197.404C170.595 192.061 160.467 188.995 149.908 188.689C146.938 188.619 143.966 188.782 141.037 189.175C140.351 189.266 140.646 190.088 141.325 189.997C151.588 188.7 162.105 190.212 171.124 194.282C173.686 195.43 176.104 196.767 178.346 198.273C178.361 198.281 178.376 198.288 178.393 198.294C178.428 198.33 178.472 198.359 178.522 198.381C178.572 198.403 178.627 198.416 178.684 198.42C178.741 198.425 178.799 198.42 178.853 198.406C178.908 198.392 178.958 198.37 179.001 198.34L188.212 192.856L202.873 184.129L206.207 182.144C206.316 182.147 206.423 182.117 206.504 182.06C206.586 182.002 206.635 181.922 206.641 181.836C206.914 180.353 207.306 178.886 207.814 177.442C207.836 177.388 207.842 177.33 207.833 177.273C207.824 177.216 207.798 177.161 207.759 177.113V177.113ZM205.651 181.425L196.469 186.893L181.806 195.62L179.888 196.763C180.035 195.719 180.228 194.682 180.496 193.652L189.393 188.45L204.045 179.883L206.377 178.519C206.089 179.479 205.837 180.444 205.651 181.421V181.425Z" fill="black"/>
<path d="M158.364 165.885C165.347 166.438 172.34 164.917 177.974 161.621C179.546 160.703 180.988 159.655 182.275 158.494C182.73 158.083 181.968 157.476 181.509 157.891C177.034 161.902 170.817 164.45 164.079 165.035C162.181 165.196 160.266 165.196 158.368 165.035C157.676 164.976 157.681 165.83 158.368 165.888L158.364 165.885Z" fill="black"/>
<path d="M140.128 194.168C144.152 194.478 148.051 195.439 151.582 196.991C155.113 198.543 158.198 200.652 160.646 203.188C162.02 204.613 163.17 206.165 164.072 207.808C164.349 208.311 165.282 207.876 165.007 207.377C163.298 204.364 160.818 201.661 157.722 199.436C154.627 197.212 150.982 195.515 147.016 194.451C144.788 193.855 142.477 193.476 140.133 193.321C139.438 193.274 139.442 194.127 140.133 194.174L140.128 194.168Z" fill="black"/>
<path d="M143.682 197.813C147.57 199.406 150.87 201.764 153.26 204.658C153.638 205.117 154.576 204.69 154.195 204.228C151.71 201.208 148.277 198.745 144.229 197.077C143.612 196.823 143.056 197.559 143.682 197.813Z" fill="black"/>
<path d="M303.937 168.132C304.092 166.965 302.549 166.284 301.346 165.985C299.854 165.569 298.222 165.584 296.743 166.028C296.455 166.118 296.198 166.26 295.993 166.443C295.788 166.626 295.641 166.845 295.563 167.081C295.486 167.317 295.48 167.564 295.547 167.803C295.613 168.041 295.75 168.264 295.947 168.452C296.487 168.881 297.132 169.219 297.842 169.446C298.553 169.673 299.314 169.785 300.081 169.774C301.474 169.833 303.635 169.578 303.918 168.246C303.919 168.226 303.919 168.207 303.918 168.187C303.92 168.168 303.937 168.152 303.937 168.132ZM300.549 168.929C299.354 168.976 298.17 168.724 297.168 168.21C296.507 167.821 296.292 167.173 297.122 166.828C298.194 166.486 299.38 166.436 300.491 166.688C301.339 166.839 302.889 167.211 302.844 168.076C302.626 168.807 301.35 168.92 300.549 168.929Z" fill="black"/>
<path d="M384.242 181.768C384.784 181.123 384.242 178.708 384.242 177.969C384.329 177.298 384.364 176.623 384.345 175.949C384.589 174.552 384.148 173.135 383.112 171.985C381.661 170.342 379.117 169.931 376.745 169.718C373.423 169.415 370.111 169.056 366.796 168.7L344.432 166.308L299.718 161.524L254.841 156.722C251.622 156.297 248.359 156.121 245.097 156.197C242.058 156.329 239.066 156.844 236.234 157.722C233.17 158.795 230.258 160.117 227.545 161.669C224.508 163.267 221.499 164.9 218.484 166.526C216.999 167.327 215.513 168.125 214.025 168.92C213.915 168.978 213.835 169.065 213.801 169.166C213.767 169.266 213.781 169.373 213.84 169.466L203.511 174.978C203.855 175.125 204.194 175.286 204.527 175.464L213.952 170.434C214.311 171.46 215.992 171.897 217.393 171.961C220.457 172.104 222.157 169.956 224.903 169.378C227.734 168.783 229.204 170.687 230.871 172.094C231.592 172.791 232.556 173.306 233.644 173.578C234.732 173.85 235.897 173.866 236.997 173.623C239.915 173.007 242.385 170.967 245.545 171.133C248.388 171.281 250.309 173.124 252.635 174.171C258.852 176.967 263.785 170.608 270.07 171.924C273.545 172.652 276.164 174.767 279.369 175.945C280.631 176.432 282.021 176.677 283.425 176.659C284.83 176.641 286.209 176.361 287.45 175.842C290.291 174.789 293.407 173.256 296.469 174.767C299.068 176.05 300.52 178.402 303.296 179.515C306.219 180.688 309.259 179.854 312.028 178.838C313.768 178.061 315.677 177.55 317.657 177.331C319.357 177.274 321.038 177.632 322.469 178.357C325.337 179.731 327.574 182.065 331.024 182.603C334.508 183.146 337.327 181.277 340.476 180.486C341.307 180.26 342.188 180.168 343.065 180.217C343.942 180.265 344.797 180.453 345.58 180.768C347.223 181.409 348.578 182.424 350.205 183.092C353.724 184.541 357.154 183.59 360.782 182.976C362.995 182.665 365.273 182.835 367.372 183.47C368.141 183.682 369.495 184.041 369.848 184.702C370.333 185.626 368.181 186.55 367.469 186.936C363.988 188.828 360.369 190.578 356.864 192.447L345.563 198.479L322.966 210.553L277.709 234.703C274.273 236.536 270.617 238.244 267.375 240.284C266.721 240.781 265.954 241.177 265.115 241.45C264.344 241.583 263.547 241.598 262.769 241.494C261.06 241.343 259.396 240.962 257.718 240.68C253.583 239.986 249.273 239.725 245.076 239.277L231.577 237.832L177.84 232.083L123.644 226.284L111.677 225.004L170.972 193.365C170.619 193.206 170.258 193.057 169.898 192.91L132.761 212.725L109.929 224.905C109.861 224.948 109.806 225.001 109.766 225.062C109.726 225.123 109.703 225.189 109.699 225.258C109.62 225.206 109.521 225.176 109.419 225.175C109.316 225.173 109.216 225.198 109.134 225.247C105.776 227.038 102.404 228.812 99.0414 230.598C97.407 231.467 95.7761 232.339 94.1486 233.215C92.8501 233.836 91.6341 234.559 90.5189 235.371C88.9978 236.614 88.1187 238.258 88.053 239.983C87.8926 239.96 87.7714 240.058 87.7714 240.417V243.833C87.7441 244.372 87.7716 244.911 87.8535 245.446C87.8165 245.518 87.8052 245.596 87.821 245.673C88.8793 250.715 97.3822 251.114 102.465 251.413C112.692 252.01 122.878 253.407 133.039 254.493L203.841 262.069C214.098 263.166 224.478 265.008 234.614 262.42C239.361 261.055 243.837 259.166 247.908 256.808C252.781 254.215 257.651 251.618 262.517 249.017C282.299 238.47 302.084 227.927 321.871 217.386L351.511 201.59C356.412 198.978 361.286 196.336 366.218 193.758C370.798 191.363 375.528 189.138 379.912 186.517C381.697 185.546 383.108 184.207 383.993 182.647C384.043 182.556 384.053 182.454 384.022 182.358C383.991 182.262 383.921 182.176 383.822 182.115C383.995 182.027 384.139 181.908 384.242 181.768ZM365.303 182.179C364.346 182.021 363.371 181.943 362.393 181.946C360.826 182.066 359.279 182.315 357.777 182.687C355.594 183.243 353.233 183.179 351.103 182.506C349.451 181.89 348.106 180.896 346.51 180.202C343.699 178.977 341.063 179.296 338.234 180.283C336.386 180.929 334.528 181.856 332.448 181.867C330.618 181.783 328.871 181.236 327.467 180.308C324.81 178.782 322.495 176.805 319.044 176.509C315.379 176.201 312.474 177.981 309.167 178.858C308.285 179.139 307.338 179.269 306.388 179.242C305.437 179.215 304.504 179.031 303.65 178.701C302.217 177.984 300.944 177.085 299.882 176.041C297.968 174.429 295.806 173.005 292.822 173.302C289.882 173.595 287.596 175.196 284.769 175.729C281.049 176.429 277.813 174.259 274.883 172.794C272.163 171.433 269.156 170.432 265.902 171.094C262.648 171.755 259.917 173.875 256.518 174.085C253.684 174.261 251.696 172.518 249.514 171.406C248.429 170.808 247.164 170.444 245.846 170.349C244.527 170.253 243.2 170.431 241.995 170.863C239.416 171.737 236.303 173.817 233.375 172.618C231.327 171.779 230.377 169.901 228.43 168.951C225.923 167.732 223.408 168.841 221.261 169.998C220.236 170.669 218.962 171.061 217.63 171.115C216.623 171.097 214.633 170.876 214.985 169.757C215.001 169.707 215.004 169.655 214.993 169.605C214.983 169.554 214.959 169.505 214.923 169.462C220.649 166.401 226.271 163.187 232.144 160.303C237.419 157.771 243.588 156.642 249.739 157.084C253.3 157.296 256.853 157.788 260.391 158.167L271.068 159.31L292.757 161.63L335.8 166.234C349.646 167.716 363.514 169.109 377.354 170.628C378.616 170.716 379.84 171.014 380.946 171.501C381.612 171.883 382.168 172.371 382.577 172.935C382.985 173.499 383.237 174.124 383.315 174.77C383.221 174.809 383.16 174.948 383.16 175.248V176.184C382.977 176.749 382.677 177.286 382.273 177.775C380.057 180.481 376.035 182.14 372.635 183.765C372.064 184.039 371.499 184.319 370.94 184.606C370.864 184.399 370.74 184.205 370.574 184.034C369.449 182.849 367.033 182.429 365.303 182.175V182.179ZM89.5388 238.123C90.5645 235.947 93.0838 234.82 95.3959 233.577C98.5591 231.874 101.741 230.195 104.919 228.512C106.509 227.672 108.098 226.829 109.684 225.984C109.76 225.945 109.821 225.892 109.862 225.829C109.903 225.765 109.923 225.695 109.919 225.624C109.966 225.646 109.997 225.678 110.061 225.685L164.767 231.537L219.325 237.374L246.564 240.289C250.639 240.725 254.775 241.015 258.79 241.748C260.28 242.076 261.808 242.286 263.351 242.374C253.837 247.589 244.673 253.739 233.495 256.56C230.638 257.296 227.674 257.74 224.674 257.881C221.246 257.919 217.821 257.707 214.444 257.246C206.594 256.431 198.746 255.603 190.9 254.763C175.282 253.094 159.667 251.408 144.056 249.708C128.536 248.033 112.994 246.482 97.4878 244.739C94.9111 244.449 91.8835 244.389 90.1591 242.605C89.5873 241.959 89.2308 241.21 89.1224 240.426C89.014 239.643 89.1572 238.851 89.5388 238.123V238.123ZM383.062 182.22C381.938 184.302 379.914 185.505 377.638 186.79C375.51 187.994 373.319 189.124 371.121 190.243C366.384 192.654 361.711 195.134 357.045 197.623L328.393 212.892L270.719 243.628C265.969 246.16 261.218 248.693 256.467 251.225C251.848 253.689 247.302 256.308 242.538 258.598C238.351 260.64 233.695 262.013 228.835 262.639C223.544 263.293 218.39 262.778 213.131 262.214L144.322 254.853L110.174 251.199C106.906 250.849 103.65 250.678 100.368 250.426C97.2923 250.191 93.7524 249.865 91.1705 248.4C90.5705 248.065 90.0604 247.64 89.6696 247.15C89.2788 246.659 89.0151 246.113 88.8936 245.541C89.0789 244.566 89.0683 243.574 88.8623 242.601C89.2544 243.141 89.7759 243.615 90.3977 243.998C91.3055 244.551 92.36 244.935 93.4826 245.121C95.3073 245.44 97.2154 245.567 99.0648 245.772C103.015 246.21 106.968 246.636 110.925 247.05C119.034 247.904 127.146 248.746 135.253 249.616C151.38 251.349 167.505 253.09 183.63 254.84C191.624 255.7 199.624 256.55 207.629 257.391C214.611 258.123 221.694 259.333 228.73 258.372C241.258 256.661 251.578 250.003 261.649 244.357C262.89 243.662 264.139 242.973 265.4 242.303C265.477 242.262 265.539 242.205 265.58 242.139C266.123 242.006 266.634 241.805 267.094 241.543C274.246 237.37 281.774 233.565 289.146 229.633L311.993 217.442L357.624 193.09C361.116 191.227 364.749 189.497 368.197 187.593C369.246 187.109 370.139 186.439 370.803 185.636C370.892 185.631 370.977 185.608 371.05 185.569C374.438 183.776 378.163 182.361 381.15 180.127C381.911 179.57 382.587 178.946 383.167 178.268V179.318C383.08 180.223 383.181 181.132 383.468 182.01C383.381 182.007 383.295 182.025 383.222 182.063C383.149 182.1 383.093 182.155 383.062 182.22V182.22Z" fill="black"/>
<path d="M67.7838 80.5933C66.2589 76.0759 60.7628 71.4559 54.3086 72.7988C48.2286 74.0596 46.241 79.6303 47.2993 84.0347C46.8638 83.9869 46.4202 84.0138 45.9991 84.1135C45.5779 84.2133 45.1891 84.3836 44.8593 84.6127C44.5294 84.8418 44.2663 85.1243 44.088 85.441C43.9096 85.7577 43.8202 86.1009 43.8259 86.4473C43.8259 88.9432 47.6304 89.5058 49.3612 88.1413C49.9579 88.9014 50.6604 89.6066 51.4557 90.244C50.4834 92.593 48.1543 94.4728 46.5629 96.5744C45.6154 97.8259 45.0133 98.7365 46.6633 99.6688C47.4987 100.08 48.4597 100.305 49.4445 100.321C50.4292 100.337 51.4011 100.143 52.2572 99.7591C54.5055 98.4727 55.6328 94.8999 56.2011 92.5724C57.6229 92.9086 59.1299 92.9542 60.5803 92.7049C67.3159 91.5529 69.3465 85.2246 67.7838 80.5933Z" fill="#FFAF66"/>
<path d="M70.0424 80.4167C69.22 76.5544 66.8622 72.5504 62.7828 70.1747C60.8828 69.0457 58.5599 68.4468 56.1801 68.4725C53.4771 68.574 50.8778 69.3226 48.729 70.6182C44.527 73.0822 42.3843 76.9835 39.964 80.5194C38.8198 82.3198 37.3875 83.9973 35.7021 85.511C34.2257 86.545 32.672 87.5084 31.0492 88.396C30.5214 88.745 29.7029 89.2327 29.6012 89.8158C29.5956 90.141 29.7132 90.4601 29.9391 90.7322C30.1651 91.0044 30.489 91.2172 30.8694 91.3435C31.1195 91.4726 31.387 91.5793 31.667 91.6618C31.6149 91.6844 31.5953 91.3815 31.6058 91.3836C31.3422 91.5 31.0869 91.6275 30.8407 91.7655C29.9805 92.1156 29.0095 92.2603 28.1389 92.5971C27.6829 92.7336 27.2845 92.9678 26.9887 93.2733C26.6929 93.5788 26.5115 93.9434 26.465 94.3259C26.4185 94.7084 26.5088 95.0935 26.7256 95.4377C26.9424 95.7818 27.2771 96.0714 27.6919 96.2736C28.0447 96.4359 28.4187 96.5677 28.8075 96.6668C29.0371 96.7236 29.2603 96.7954 29.4748 96.8814C29.5491 97.0734 28.9835 97.4091 28.7723 97.5056C28.2244 97.6979 27.7062 97.9391 27.2279 98.2242C26.7756 98.5322 26.4714 98.9532 26.3663 99.4167C26.2612 99.8802 26.3615 100.358 26.6505 100.77C27.4867 101.525 28.6315 102.025 29.8867 102.185C31.2486 102.41 32.631 102.55 34.0208 102.603C35.534 102.694 37.0394 102.842 38.5512 102.953C42.1735 103.244 45.8188 103.315 49.4549 103.166C52.3815 103.12 55.276 102.675 58.01 101.851C66.9326 98.8166 70.7488 90.2296 70.3838 83.0635C70.3373 82.1749 70.2233 81.2894 70.0424 80.4116C69.9316 79.8705 68.8876 80.1036 68.9997 80.6385C69.6805 84.1687 69.3025 87.7755 67.8958 91.17C66.6332 94.6165 63.996 97.6514 60.3743 99.8259C58.5043 100.864 56.3693 101.568 54.1182 101.888C50.6949 102.334 47.2211 102.492 43.7554 102.36C40.5519 102.277 37.3874 101.949 34.1968 101.756C32.8457 101.707 31.5017 101.574 30.1773 101.358C29.3262 101.199 27.4494 100.798 27.3725 99.9306C27.2735 98.8177 28.7463 98.5846 29.6221 98.0826C30.2086 97.7458 30.8668 97.0138 30.4041 96.4399C30.0222 95.9717 29.1764 95.8999 28.5859 95.6791C28.3861 95.6181 28.2036 95.5266 28.049 95.4097C27.8943 95.2929 27.7706 95.153 27.6849 94.9983C27.5993 94.8436 27.5533 94.677 27.5498 94.5082C27.5463 94.3394 27.5853 94.1718 27.6645 94.0149C28.0372 93.3886 29.1516 93.1669 29.9062 92.9636C30.815 92.788 31.6615 92.4529 32.3826 91.9831C33.7432 90.8877 30.5866 90.7799 30.6804 89.9072C30.6687 90.015 30.7534 89.8292 30.7951 89.784C30.8915 89.6857 30.9969 89.593 31.1105 89.5068C31.4365 89.2516 31.7812 89.0117 32.1427 88.7882C32.9665 88.2656 33.8371 87.7861 34.6855 87.2923C36.3031 86.3243 37.6889 85.137 38.778 83.7862C41.515 80.5471 43.2094 76.7895 46.2735 73.7167C49.2842 70.7044 54.3255 68.4078 59.2742 69.6696C63.8046 70.8246 66.7032 74.4538 68.1369 77.8388C68.5201 78.7518 68.8134 79.6868 69.014 80.6354C69.1131 81.1836 70.1571 80.9547 70.0424 80.4167Z" fill="#FFE054"/>
<path d="M57.8876 97.9184C61.1042 95.1793 66.5352 102.436 68.1839 103.989C69.0467 104.801 71.9701 108.494 73.2669 108.609C74.6849 108.733 77.0818 106.464 78.174 105.859C81.7803 103.862 86.7095 101.533 91.1721 101.086C97.389 100.462 93.8961 105.558 91.8238 107.394C86.9649 111.706 75.6872 118.988 68.3312 114.967C64.8075 112.871 61.8074 110.278 59.4829 107.321C57.6243 105.013 54.989 100.387 57.8876 97.9184Z" fill="#FFAF66"/>
<path d="M116.308 96.8687C115.501 87.3207 114.946 77.7727 114.477 68.2093C114.347 65.5194 114.241 62.8286 114.086 60.1387C113.861 57.4656 113.817 54.7849 113.956 52.1081C114.036 51.2293 114.188 50.3576 114.216 49.4757C114.244 48.7037 114.339 47.5476 113.531 46.9778C113.401 46.8661 113.239 46.7813 113.058 46.7311C112.877 46.6809 112.682 46.6669 112.493 46.6903C112.303 46.7137 112.124 46.7738 111.971 46.8652C111.818 46.9565 111.696 47.0764 111.616 47.214C111.537 47.0084 111.374 46.829 111.153 46.7031C110.932 46.5773 110.665 46.5118 110.392 46.5169C109.57 46.5579 109.299 47.3885 109.133 47.8977C109.114 47.9573 109.106 48.0179 109.089 48.0774C109.069 48.0312 109.056 47.983 109.037 47.9368C108.866 47.5353 108.626 46.9008 107.994 46.8413C107.212 46.7684 106.984 47.601 106.865 48.0435C106.714 48.6702 106.661 49.309 106.705 49.9459C106.719 50.3412 106.914 53.2251 105.675 52.757C105.432 52.6646 105.235 52.4202 105.024 52.2878C104.881 52.1846 104.711 52.1084 104.526 52.065C104.34 52.0216 104.145 52.0121 103.954 52.0373C103.758 52.0817 103.575 52.1576 103.418 52.2603C103.261 52.363 103.132 52.4901 103.041 52.6338C102.949 52.7775 102.896 52.9346 102.885 53.0952C102.874 53.2558 102.906 53.4164 102.978 53.567C103.316 54.2425 104.208 54.606 104.634 55.2435C105.15 56.1535 105.41 57.1403 105.398 58.1367C105.545 60.3769 105.789 62.6088 106.085 64.8408C106.381 67.0728 106.802 69.3017 107.064 71.5388C107.186 72.3442 107.195 73.1579 107.09 73.9648C107.32 73.9199 107.527 73.8198 107.683 73.6784C108.289 73.2143 108.774 72.431 109.621 72.2123C110.907 71.8807 111.466 73.2574 111.739 73.9638C112.37 75.6927 112.77 77.4689 112.932 79.2634C113.152 81.1337 113.154 83.0159 112.939 84.8865C112.955 85.6202 112.786 86.3493 112.443 87.0314C112.099 87.7135 111.587 88.3353 110.937 88.8607C108.488 90.4869 104.858 90.2149 101.871 90.4007C99.1688 90.6166 96.4495 90.6694 93.7369 90.5588C91.9696 90.4561 88.1209 90.1718 88.3398 88.1379C88.3398 86.9456 88.3451 85.7533 88.3555 84.561C88.3724 82.2089 88.4063 79.8568 88.4858 77.5058C88.5184 76.4791 88.5823 75.4524 88.5966 74.4258C88.5625 73.8102 88.642 73.1939 88.8325 72.5963C88.9168 72.3271 89.084 72.0785 89.3192 71.8724C89.5545 71.6663 89.8507 71.5091 90.1815 71.4146C90.5347 71.3227 90.9128 71.3073 91.2762 71.37C91.6396 71.4327 91.975 71.5711 92.2472 71.7708C92.3085 71.8252 92.3655 71.8824 92.418 71.9423C92.3098 71.317 92.1899 70.6938 92.0947 70.0686C91.7363 67.7175 91.4574 65.3583 91.2111 62.998C90.8091 60.9719 90.7312 58.9142 90.9791 56.8729C91.1564 56.073 91.463 55.2942 91.8914 54.5557C92.1769 54.068 92.5431 53.413 92.0648 52.9222C91.9333 52.8097 91.7737 52.7197 91.5961 52.658C91.4184 52.5962 91.2265 52.5641 91.0323 52.5635C90.8381 52.5629 90.6459 52.5939 90.4676 52.6546C90.2894 52.7153 90.1289 52.8043 89.9964 52.9161C89.7618 53.0978 89.6054 53.3925 89.3356 53.5413C89.2131 53.6091 89.2457 53.6142 89.1414 53.5413C88.9302 53.3633 88.7564 53.1598 88.6266 52.9387C88.4271 52.581 88.2632 52.2117 88.1365 51.834C87.8394 51.0219 87.6256 50.1913 87.3754 49.37C87.245 48.9429 87.129 48.1636 86.5764 47.9265C85.6641 47.5353 85.4034 48.6914 85.3031 49.1328C84.9121 48.3279 84.3582 47.6349 83.4641 47.8207C83.2335 47.8869 83.0308 48.0023 82.8789 48.1541C82.7269 48.3059 82.6317 48.488 82.6039 48.6801C82.5645 48.6244 82.5209 48.5706 82.4735 48.5189C81.5195 47.6852 80.3608 48.6215 80.2279 49.4511C80.1654 50.6537 80.3791 51.8554 80.8587 52.9982C81.2927 54.3586 81.672 55.7025 81.9587 57.0905C82.8176 61.3176 83.2257 65.5939 83.1786 69.8746C83.1435 74.2964 83.09 78.7183 83.0965 83.1412C83.1096 91.9233 83.2594 100.704 83.5462 109.484C83.6183 111.675 83.6982 113.867 83.786 116.062C83.8486 117.619 83.9932 119.182 83.9359 120.74C83.8942 121.884 83.8368 123.031 83.8811 124.177C83.9046 124.793 83.7808 126.204 84.6983 126.503C85.0379 126.58 85.3969 126.587 85.741 126.524C86.1598 126.491 86.5821 126.498 86.9987 126.546C88.1959 126.614 89.3984 126.598 90.592 126.498C93.1752 126.335 95.7571 126.293 98.3481 126.245L114.947 125.916L119.112 125.834C119.372 125.834 119.69 125.642 119.654 125.408C118.176 115.927 117.115 106.403 116.308 96.8687Z" fill="#F36B73"/>
<path d="M111.133 89.372C111.133 84.8147 110.124 80.7706 103.521 80.0519C97.7137 79.4205 91.5307 80.3815 90.7813 85.5693C90.0971 90.3248 91.1319 96.2343 97.4987 98.2886C104.937 100.69 111.133 94.8493 111.133 89.372Z" fill="#FFE993"/>
<path d="M107.484 171.333C105.907 170.753 104.267 170.286 102.584 169.937C101.701 169.753 97.9444 169.674 97.4348 169.243C97.1744 168.779 97.0784 168.268 97.1572 167.765C96.9532 166.989 96.8618 166.197 96.8848 165.404C96.8118 163.779 96.8848 162.118 96.6763 160.491C94.8516 160.644 93.0204 160.721 91.1919 160.841C90.1218 160.912 89.0518 160.994 87.9843 161.093C87.4746 161.099 86.9693 161.168 86.4868 161.298C86.8674 165.431 86.8778 169.576 87.0381 173.721C88.2633 174.111 92.5669 173.516 93.646 173.499L99.7847 173.387C102.034 173.346 104.367 173.443 106.606 173.263C108.276 173.128 110.132 172.308 107.484 171.333Z" fill="#F36B73"/>
<path d="M130.447 169.274C128.791 168.826 123.921 168.225 122.757 167.195C122.246 166.741 122.352 165.696 122.292 165.125C122.031 162.715 121.97 160.292 121.723 157.878C119.853 157.992 117.989 158.149 116.132 158.349C114.862 158.383 113.601 158.534 112.376 158.799C112.044 159.078 112.549 160.946 112.577 161.308C112.702 162.985 112.808 164.662 112.896 166.339C112.94 167.187 112.98 168.034 113.015 168.881C113.076 170.372 112.592 170.586 114.158 170.965C117.498 171.774 122.499 171.237 126.007 171.355C127.332 171.399 131.221 172.066 132.32 171.551C133.964 170.784 131.871 169.659 130.447 169.274Z" fill="#F36B73"/>
<path d="M91.8666 108.039C91.8486 108.234 91.7378 108.415 91.5564 108.548C91.3751 108.681 91.1367 108.755 90.8891 108.755C90.6415 108.755 90.4031 108.681 90.2218 108.548C90.0405 108.415 89.9297 108.234 89.9116 108.039C89.9297 107.845 90.0405 107.663 90.2218 107.53C90.4031 107.397 90.6415 107.323 90.8891 107.323C91.1367 107.323 91.3751 107.397 91.5564 107.53C91.7378 107.663 91.8486 107.845 91.8666 108.039V108.039Z" fill="white"/>
<path d="M112.625 108.039C112.607 108.234 112.496 108.415 112.315 108.548C112.133 108.681 111.895 108.755 111.647 108.755C111.4 108.755 111.161 108.681 110.98 108.548C110.799 108.415 110.688 108.234 110.67 108.039C110.688 107.845 110.799 107.663 110.98 107.53C111.161 107.397 111.4 107.323 111.647 107.323C111.895 107.323 112.133 107.397 112.315 107.53C112.496 107.663 112.607 107.845 112.625 108.039V108.039Z" fill="white"/>
<path d="M120.075 131.032C120.059 130.673 120.082 130.248 120.116 129.8C119.969 128.294 119.835 126.788 119.712 125.283C119.693 125.257 119.663 125.241 119.642 125.216C107.535 125.542 95.362 125.122 83.3166 126.124C83.2984 126.175 83.2788 126.218 83.2632 126.274C83.4365 128.381 83.5239 130.489 83.5616 132.598C83.6047 132.962 83.6438 133.323 83.6685 133.672C84.3176 143.16 84.9692 152.648 85.6235 162.135C88.8271 161.92 92.0255 161.655 95.2317 161.447C96.711 161.35 97.1945 161.478 97.4812 161.176C97.3067 157.075 97.6855 152.971 98.6112 148.933C98.8559 146.568 99.6768 144.263 101.029 142.142C104.328 137.41 108.393 141.262 109.585 144.791C111.173 149.492 111.162 154.761 111.603 159.582C115.108 159.133 118.62 158.82 122.16 158.625C121.21 149.437 120.476 140.242 120.075 131.032Z" fill="black"/>
<path d="M66.9522 119.204C66.4544 117.459 63.4763 116.789 63.0644 115.028C63.1003 113.821 63.6214 112.655 64.5528 111.697C65.5364 110.558 66.104 109.228 66.1937 107.851C66.2393 104.73 63.7343 101.915 61.7767 99.3537C60.8774 98.1771 60.1736 96.9307 59.3199 95.7398C58.6763 94.8975 57.6565 94.2751 56.4604 93.9945C54.6553 93.482 52.7247 93.3031 50.8179 93.4717C48.9111 93.6403 47.0789 94.1518 45.4629 94.9667C44.4697 95.4626 42.8562 96.2172 42.7259 97.2531C42.7176 97.6666 42.7978 98.0782 42.9631 98.4707C43.2168 99.2299 43.3335 100.013 43.3098 100.798C43.2157 102.322 42.6516 103.805 41.6663 105.118C41.2298 105.761 40.6911 106.358 40.0632 106.894C39.4871 107.354 38.812 107.729 38.2098 108.168C37.1536 109.023 36.5084 110.141 36.3852 111.33C36.0841 112.719 35.6735 114.074 35.2825 115.45C34.9867 116.489 34.7013 117.527 34.3989 118.565C34.0331 119.406 33.9071 120.301 34.03 121.186C34.3077 122.057 35.8964 122.11 36.8035 122.248C38.4889 122.6 40.062 123.226 41.4212 124.086C42.9316 124.971 44.2866 126.01 45.4512 127.175C46.4646 128.294 47.3426 129.485 48.0735 130.733C48.4284 131.259 48.8465 131.756 49.3221 132.219C49.3487 132.414 49.434 132.601 49.5708 132.765C49.7076 132.928 49.892 133.064 50.1086 133.16C50.3252 133.257 50.5679 133.311 50.8165 133.318C51.065 133.326 51.3123 133.287 51.5377 133.204C52.8805 133.026 54.1967 132.74 55.466 132.352C55.7913 132.197 56.0669 131.985 56.2714 131.732C56.4759 131.48 56.604 131.194 56.6455 130.896C56.9228 129.722 57.3702 128.578 57.9788 127.484C58.6526 126.327 59.4964 125.237 60.4929 124.235C61.2759 123.396 62.2266 122.662 63.3081 122.063C64.1592 121.645 65.0507 121.275 65.8744 120.823C66.6199 120.413 67.1712 119.976 66.9522 119.204Z" fill="#9DF4CF"/>
<path d="M43.4934 117.11C41.2073 115.751 39.2784 116.246 37.399 117.232C36.3315 114.385 32.7474 110.774 31.6812 109.628C38.7792 108.979 45.6269 102.772 42.6866 96.9785C37.0953 98.9631 31.5965 101.107 26.0313 103.139C23.495 104.063 21.3145 104.718 21.7759 107.233C22.1474 109.253 24.0398 111.487 25.4383 113.15C26.7937 114.759 30.245 119.455 33.6389 120.58C33.623 120.904 33.7644 121.222 34.0345 121.467C34.3046 121.713 34.6831 121.869 35.0934 121.903C36.8542 122.191 37.5893 121.158 39.4374 122.014C39.9757 122.263 41.8538 124.234 42.5537 123.123C42.9447 122.507 41.614 121.138 40.9545 120.87C41.7469 120.993 44.6038 122.555 44.3027 120.999C44.1411 120.148 42.4324 119.878 41.9059 119.22C42.7948 119.315 44.8658 120.305 45.5331 119.449C46.1183 118.698 44.0525 117.45 43.4934 117.11Z" fill="#FFAF66"/>
<path d="M41.0966 145.197L41.0444 145.255C40.9937 145.32 40.9668 145.394 40.9668 145.471C40.9668 145.547 40.9937 145.621 41.0444 145.686L41.0979 145.743C41.5071 146.18 42.4481 145.755 42.0336 145.312L41.9802 145.255V145.686L42.0323 145.629C42.4364 145.18 41.498 144.753 41.0966 145.197V145.197Z" fill="black"/>
<path d="M41.0796 149.083H41.1604C41.2994 149.077 41.4305 149.03 41.5265 148.951C41.6225 148.871 41.676 148.766 41.676 148.656C41.676 148.546 41.6225 148.441 41.5265 148.362C41.4305 148.282 41.2994 148.235 41.1604 148.229H41.0796C40.9405 148.235 40.8095 148.282 40.7135 148.362C40.6175 148.441 40.564 148.546 40.564 148.656C40.564 148.766 40.6175 148.871 40.7135 148.951C40.8095 149.03 40.9405 149.077 41.0796 149.083V149.083Z" fill="black"/>
<path d="M43.7451 147.429H43.8259C43.9649 147.424 44.096 147.377 44.192 147.297C44.288 147.218 44.3415 147.112 44.3415 147.003C44.3415 146.893 44.288 146.788 44.192 146.708C44.096 146.629 43.9649 146.582 43.8259 146.576H43.7451C43.6061 146.582 43.475 146.629 43.379 146.708C43.283 146.788 43.2295 146.893 43.2295 147.003C43.2295 147.112 43.283 147.218 43.379 147.297C43.475 147.377 43.6061 147.424 43.7451 147.429Z" fill="black"/>
<path d="M45.9019 145.348V145.284C45.8951 145.175 45.8351 145.071 45.7343 144.996C45.6334 144.92 45.4996 144.878 45.3604 144.878C45.2212 144.878 45.0873 144.92 44.9865 144.996C44.8857 145.071 44.8257 145.175 44.8188 145.284V145.348C44.8257 145.457 44.8857 145.56 44.9865 145.636C45.0873 145.712 45.2212 145.754 45.3604 145.754C45.4996 145.754 45.6334 145.712 45.7343 145.636C45.8351 145.56 45.8951 145.457 45.9019 145.348Z" fill="black"/>
<path d="M59.4149 145.711C59.5222 145.711 59.6272 145.686 59.7165 145.639C59.8058 145.592 59.8755 145.526 59.9168 145.448C59.958 145.37 59.9689 145.284 59.9481 145.201C59.9274 145.118 59.8758 145.042 59.8001 144.982C59.7243 144.922 59.6277 144.881 59.5225 144.865C59.4173 144.848 59.3082 144.857 59.209 144.889C59.1099 144.921 59.0251 144.976 58.9655 145.046C58.9059 145.116 58.874 145.199 58.874 145.284C58.8757 145.396 58.9332 145.504 59.0342 145.584C59.1353 145.664 59.2719 145.709 59.4149 145.711V145.711Z" fill="black"/>
<path d="M59.9233 147.635V147.698C59.9302 147.808 59.9902 147.911 60.091 147.987C60.1918 148.062 60.3257 148.104 60.4649 148.104C60.6041 148.104 60.7379 148.062 60.8387 147.987C60.9396 147.911 60.9996 147.808 61.0064 147.698V147.635C60.9996 147.525 60.9396 147.422 60.8387 147.346C60.7379 147.271 60.6041 147.229 60.4649 147.229C60.3257 147.229 60.1918 147.271 60.091 147.346C59.9902 147.422 59.9302 147.525 59.9233 147.635V147.635Z" fill="black"/>
<path d="M61.459 145.22V145.283C61.4658 145.393 61.5258 145.496 61.6266 145.572C61.7275 145.647 61.8613 145.689 62.0005 145.689C62.1397 145.689 62.2736 145.647 62.3744 145.572C62.4752 145.496 62.5352 145.393 62.5421 145.283V145.22C62.5352 145.11 62.4752 145.007 62.3744 144.931C62.2736 144.856 62.1397 144.813 62.0005 144.813C61.8613 144.813 61.7275 144.856 61.6266 144.931C61.5258 145.007 61.4658 145.11 61.459 145.22V145.22Z" fill="black"/>
<path d="M62.7268 147.301C62.834 147.301 62.9389 147.276 63.0281 147.229C63.1173 147.182 63.1868 147.116 63.2278 147.038C63.2688 146.959 63.2795 146.874 63.2584 146.791C63.2374 146.708 63.1856 146.632 63.1097 146.572C63.0337 146.512 62.937 146.472 62.8317 146.455C62.7265 146.439 62.6174 146.448 62.5184 146.48C62.4193 146.513 62.3347 146.567 62.2753 146.638C62.2159 146.708 62.1843 146.791 62.1846 146.875C62.1873 146.988 62.2453 147.095 62.3464 147.175C62.4476 147.254 62.5839 147.3 62.7268 147.301V147.301Z" fill="black"/>
<path d="M96.8953 106.568L97.0569 106.441C97.1499 106.359 97.1998 106.253 97.1962 106.144C97.1927 106.034 97.136 105.93 97.0379 105.853C96.9398 105.775 96.8077 105.731 96.6689 105.728C96.5301 105.725 96.3951 105.764 96.2918 105.837L96.1302 105.964C96.0372 106.045 95.9874 106.152 95.9909 106.261C95.9944 106.37 96.0511 106.475 96.1492 106.552C96.2473 106.629 96.3794 106.674 96.5182 106.677C96.657 106.68 96.792 106.641 96.8953 106.568Z" fill="black"/>
<path d="M97.75 109.193V109.32C97.7568 109.429 97.8169 109.532 97.9177 109.608C98.0185 109.684 98.1523 109.726 98.2915 109.726C98.4307 109.726 98.5646 109.684 98.6654 109.608C98.7662 109.532 98.8262 109.429 98.8331 109.32V109.193C98.8262 109.084 98.7662 108.981 98.6654 108.905C98.5646 108.829 98.4307 108.787 98.2915 108.787C98.1523 108.787 98.0185 108.829 97.9177 108.905C97.8169 108.981 97.7568 109.084 97.75 109.193V109.193Z" fill="black"/>
<path d="M99.2593 107.456H99.4209C99.5599 107.45 99.691 107.403 99.787 107.324C99.883 107.244 99.9365 107.139 99.9365 107.029C99.9365 106.919 99.883 106.814 99.787 106.735C99.691 106.655 99.5599 106.608 99.4209 106.603H99.2593C99.1202 106.608 98.9892 106.655 98.8932 106.735C98.7972 106.814 98.7437 106.919 98.7437 107.029C98.7437 107.139 98.7972 107.244 98.8932 107.324C98.9892 107.403 99.1202 107.45 99.2593 107.456V107.456Z" fill="black"/>
<path d="M101.79 103.467V103.594C101.797 103.704 101.857 103.807 101.958 103.882C102.059 103.958 102.192 104 102.332 104C102.471 104 102.605 103.958 102.705 103.882C102.806 103.807 102.866 103.704 102.873 103.594V103.467C102.866 103.357 102.806 103.254 102.705 103.178C102.605 103.103 102.471 103.061 102.332 103.061C102.192 103.061 102.059 103.103 101.958 103.178C101.857 103.254 101.797 103.357 101.79 103.467Z" fill="black"/>
<path d="M102.49 107.584H102.651C102.79 107.578 102.921 107.531 103.017 107.452C103.113 107.372 103.166 107.267 103.166 107.157C103.166 107.047 103.113 106.942 103.017 106.863C102.921 106.783 102.79 106.736 102.651 106.73H102.49C102.351 106.736 102.22 106.783 102.124 106.863C102.028 106.942 101.975 107.047 101.975 107.157C101.975 107.267 102.028 107.372 102.124 107.452C102.22 107.531 102.351 107.578 102.49 107.584V107.584Z" fill="black"/>
<path d="M102.974 112.292H103.135C103.274 112.286 103.405 112.239 103.501 112.16C103.597 112.08 103.651 111.975 103.651 111.865C103.651 111.755 103.597 111.65 103.501 111.571C103.405 111.491 103.274 111.444 103.135 111.438H102.974C102.835 111.444 102.704 111.491 102.608 111.571C102.512 111.65 102.458 111.755 102.458 111.865C102.458 111.975 102.512 112.08 102.608 112.16C102.704 112.239 102.835 112.286 102.974 112.292Z" fill="black"/>
<path d="M97.2378 94.052C98.2363 94.4031 99.3318 94.5483 100.421 94.474C101.511 94.3996 102.558 94.1081 103.465 93.627C103.298 94.9924 102.843 96.8281 100.709 96.9123C98.6623 96.9831 97.9142 95.2409 97.2378 94.052Z" fill="#F36B73"/>
<path d="M96.9681 94.4207C98.0517 94.8053 99.2412 94.968 100.426 94.8937C101.611 94.8193 102.753 94.5104 103.745 93.9956L102.931 93.627C102.8 94.7143 102.468 96.399 100.715 96.4812C98.9622 96.5633 98.2844 94.8508 97.7175 93.8365C97.4347 93.3365 96.5015 93.7698 96.7817 94.2677C97.5976 95.7122 98.5946 97.5664 101.029 97.3087C103.292 97.0695 103.829 95.1239 104.018 93.627C104.017 93.5523 103.991 93.479 103.943 93.4145C103.895 93.3499 103.827 93.2964 103.744 93.2592C103.662 93.2219 103.569 93.2023 103.474 93.2021C103.379 93.202 103.286 93.2214 103.203 93.2585C102.377 93.6985 101.425 93.968 100.432 94.0423C99.4397 94.1166 98.4394 93.9932 97.5233 93.6835C96.8794 93.4638 96.3281 94.1979 96.9681 94.4207Z" fill="#F36B73"/>
<path d="M49.5265 169.412C49.3349 159.637 49.2359 149.861 49.0782 140.085C49.0417 137.892 49.4809 135.29 48.7445 133.215C47.9584 131.549 46.8177 130.002 45.3715 128.639C42.6835 125.576 38.6342 123.42 34.0247 122.596C35.7827 138.332 38.7146 153.973 42.8052 169.437C40.0682 169.631 36.3003 170.875 33.5516 171.721C29.3066 173.029 33.0211 173.453 35.2081 173.208C37.5893 172.942 39.9679 172.66 42.3347 172.325C44.9818 171.951 49.7872 172.197 49.5265 169.412Z" fill="#FFAF66"/>
<path d="M113.545 85.6244C113.599 85.3369 113.643 85.0515 113.676 84.7732C113.899 82.8722 113.899 80.9589 113.676 79.0578C113.514 77.2281 113.105 75.4171 112.457 73.6555C112.264 72.8541 111.7 72.138 110.873 71.6463C110.668 71.563 110.443 71.5135 110.212 71.501C109.981 71.4885 109.749 71.5131 109.531 71.5734C108.844 71.8041 108.261 72.1917 107.856 72.6863C107.7 72.8518 107.53 73.0088 107.348 73.1565C107.297 73.1963 107.243 73.2337 107.186 73.2684C106.972 73.0264 106.817 72.7552 106.729 72.4686C106.556 72.0518 106.197 71.1853 105.035 71.134C104.51 71.1618 104 71.2776 103.537 71.4736C103.074 71.6696 102.67 71.9413 102.351 72.2705C102.087 72.4986 101.84 72.7385 101.611 72.9892L101.375 73.2397C101.337 73.2807 101.273 73.3526 101.217 73.406C101.032 73.2846 100.862 73.1491 100.71 73.0015C100.516 72.8047 100.346 72.5932 100.204 72.3701C99.8666 71.7354 99.2498 71.2178 98.467 70.9122C97.9726 70.7823 97.4437 70.7567 96.9328 70.838C96.422 70.9192 95.9471 71.1045 95.5554 71.3752C95.0028 71.8283 94.6128 72.3888 94.4254 72.9994L94.3224 73.253C94.2736 73.3895 94.2144 73.5235 94.1452 73.6544C94.0597 73.4878 93.9909 73.3162 93.9392 73.1411L93.8402 72.8834C93.6706 72.2794 93.3122 71.7183 92.7975 71.251C92.4433 70.9866 92.0052 70.8024 91.5293 70.7176C91.0533 70.6329 90.5572 70.6508 90.0931 70.7695C89.6631 70.8863 89.2766 71.0852 88.9679 71.3483C88.6593 71.6115 88.4383 71.9308 88.3245 72.2777C88.1221 72.8889 88.0343 73.5201 88.0638 74.1513V74.254C88.056 74.87 88.0286 75.486 88.0013 76.102C87.983 76.5127 87.9669 76.9233 87.953 77.334C87.8866 79.4294 87.8475 81.6748 87.8227 84.3985C87.8227 84.842 87.8227 85.2825 87.8227 85.7229C87.7471 85.805 87.6637 85.8851 87.5946 85.9683C87.4 85.4161 87.1703 84.872 86.9065 84.3379C85.6435 81.8226 83.3458 79.8206 81.1939 77.7601C80.2086 76.8186 76.2204 71.1042 75.4723 73.8742C75.0122 75.5784 79.7407 79.0075 80.9802 80.1933C83.4998 82.3887 85.2089 85.0852 85.9224 87.9908C86.2626 89.6335 86.6249 94.0266 83.6429 94.5533C82.1519 94.8161 82.045 93.4065 80.8355 93.4075C79.2481 93.4075 79.7733 94.5892 80.3637 95.2411C82.8153 97.9515 86.7852 95.2103 87.7393 93.0307C88.0073 92.3945 88.1822 91.7363 88.2606 91.0688C89.3037 91.9431 90.7166 92.4868 92.2332 92.5975C96.9395 92.9414 101.886 92.5975 106.613 92.5975C109.126 92.5975 111.652 92.7566 113.472 91.0575C114.272 90.2952 114.716 89.3399 114.729 88.3511C114.742 87.3623 114.324 86.3998 113.545 85.6244V85.6244ZM89.2225 77.3474C89.2355 76.9418 89.2538 76.5353 89.2707 76.1297C89.2981 75.5065 89.3254 74.8834 89.3346 74.2602V74.1575C89.3063 73.6252 89.3752 73.0923 89.5392 72.5754C89.5954 72.3845 89.7094 72.2071 89.8714 72.0584C90.0334 71.9096 90.2387 71.794 90.4698 71.7212C90.6205 71.6846 90.7773 71.6659 90.9351 71.6658C91.2908 71.6595 91.6355 71.7631 91.8956 71.9543C92.2662 72.3256 92.5223 72.7597 92.6437 73.2222L92.705 73.3978C92.8575 73.8587 93.0882 74.5548 93.8689 74.7324C94.9963 74.985 95.3912 73.9357 95.541 73.5415L95.6323 73.3156C95.7633 72.8737 96.029 72.4635 96.4065 72.1206C96.6235 71.974 96.8835 71.8723 97.1629 71.8248C97.4424 71.7773 97.7325 71.7855 98.0069 71.8485C98.4853 71.9943 98.7798 72.4101 99.1474 72.9296C99.3226 73.1975 99.5351 73.4492 99.7808 73.6801C100.1 73.9717 100.693 74.5158 101.409 74.4327C101.638 74.38 101.852 74.291 102.036 74.1711C102.221 74.0513 102.372 73.9031 102.481 73.7355L102.629 73.5815C102.828 73.3627 103.043 73.1529 103.272 72.9532C103.924 72.4091 104.525 72.1031 104.956 72.1268C105.175 72.1381 105.316 72.3013 105.542 72.8454C105.609 73.1407 105.76 73.4204 105.981 73.6645C106.203 73.9086 106.49 74.111 106.823 74.2571C107.467 74.4624 108.041 74.0179 108.23 73.8721C108.453 73.6941 108.66 73.5044 108.851 73.3044C109.112 72.9731 109.482 72.7036 109.922 72.5241C109.979 72.5051 110.041 72.4961 110.103 72.4977C110.165 72.4993 110.226 72.5115 110.282 72.5333C110.763 72.7304 111.105 73.6124 111.233 73.945C111.857 75.6393 112.25 77.3811 112.406 79.1409C112.624 80.9808 112.626 82.8325 112.413 84.6726L112.405 84.7332C111.498 84.2101 110.401 83.9301 109.277 83.9345H94.3824C92.5575 83.7781 90.7151 84.0589 89.0961 84.7404C89.0961 84.6254 89.0961 84.5094 89.0961 84.3944C89.1169 81.6758 89.1573 79.4366 89.2225 77.3474Z" fill="black"/>
<path d="M93.8742 86.2685C94.3191 86.0195 94.839 85.8666 95.3821 85.8249C96.0703 85.7767 96.0768 84.9225 95.3821 84.9718C94.6469 85.0143 93.9385 85.2071 93.3268 85.5313C92.7533 85.8393 93.2942 86.5775 93.8742 86.2685Z" fill="white"/>
<path d="M106.02 86.0767C106.173 85.9816 106.358 85.9227 106.552 85.9069C106.746 85.8911 106.942 85.919 107.117 85.9874C107.769 86.1927 108.046 85.3653 107.405 85.1661C107.045 85.0563 106.654 85.0269 106.274 85.0813C105.894 85.1356 105.541 85.2716 105.253 85.4741C104.714 85.8221 105.484 86.4227 106.02 86.0778V86.0767Z" fill="white"/>
<path d="M62.8755 169.627C64.3313 153.551 66.9236 137.481 66.2016 121.334C59.187 123.721 56.6247 129.913 56.6338 135.391C56.6468 142.807 56.8032 150.221 57.103 157.634C57.2525 161.21 57.4375 164.785 57.6582 168.359C57.7677 170.096 57.4627 171.162 59.5924 171.937C61.684 172.554 63.8547 172.989 66.066 173.235C67.2078 173.418 76.2386 174.184 72.1774 172.262C69.5238 171.005 65.8054 170.399 62.8755 169.627Z" fill="#FFAF66"/>
<path d="M55.3241 83.4062C55.3061 83.6007 55.1953 83.7826 55.0139 83.9154C54.8326 84.0482 54.5942 84.122 54.3466 84.122C54.0991 84.122 53.8607 84.0482 53.6793 83.9154C53.498 83.7826 53.3872 83.6007 53.3691 83.4062C53.3872 83.2117 53.498 83.0298 53.6793 82.897C53.8607 82.7642 54.0991 82.6904 54.3466 82.6904C54.5942 82.6904 54.8326 82.7642 55.0139 82.897C55.1953 83.0298 55.3061 83.2117 55.3241 83.4062Z" fill="black"/>
<path d="M65.5888 81.9414C65.5708 82.1359 65.4599 82.3178 65.2786 82.4506C65.0973 82.5833 64.8589 82.6572 64.6113 82.6572C64.3637 82.6572 64.1253 82.5833 63.944 82.4506C63.7627 82.3178 63.6518 82.1359 63.6338 81.9414C63.6518 81.7469 63.7627 81.5649 63.944 81.4322C64.1253 81.2994 64.3637 81.2256 64.6113 81.2256C64.8589 81.2256 65.0973 81.2994 65.2786 81.4322C65.4599 81.5649 65.5708 81.7469 65.5888 81.9414Z" fill="black"/>
<path d="M64.6585 84.787C64.6389 84.3979 63.8895 84.1628 63.6497 84.5714C63.3388 84.9493 62.9065 85.2557 62.3968 85.4594C61.887 85.6632 61.3179 85.757 60.7471 85.7315C59.6163 85.7991 58.479 85.7358 57.3715 85.5437C57.2586 85.5248 57.1409 85.5356 57.0366 85.5745C57.0196 85.5745 57.0053 85.5868 56.987 85.5919C56.9714 85.5965 56.9561 85.602 56.9414 85.6083C56.8859 85.6246 56.8352 85.6498 56.7927 85.6823C56.7502 85.7149 56.7168 85.754 56.6946 85.7973C56.6724 85.8406 56.6619 85.8871 56.6638 85.9337C56.6657 85.9804 56.6799 86.0262 56.7055 86.0683L56.7199 86.096C56.731 86.1323 56.7494 86.167 56.7746 86.1987C57.7 87.9604 59.5442 90.3177 62.3906 89.6473C65.0273 89.0282 64.7445 86.4944 64.6585 84.787Z" fill="#F36B73"/>
<path d="M95.4656 88.4983L95.2232 89.4531C95.0928 89.989 96.1355 90.219 96.2658 89.68L96.5082 88.7252C96.6451 88.1893 95.5959 87.9603 95.4656 88.4983Z" fill="white"/>
<path d="M106.593 88.5136V89.6583C106.6 89.7678 106.66 89.8711 106.761 89.9467C106.862 90.0223 106.996 90.0645 107.135 90.0645C107.274 90.0645 107.408 90.0223 107.509 89.9467C107.609 89.8711 107.67 89.7678 107.676 89.6583V88.5136C107.67 88.4041 107.609 88.3008 107.509 88.2252C107.408 88.1496 107.274 88.1074 107.135 88.1074C106.996 88.1074 106.862 88.1496 106.761 88.2252C106.66 88.3008 106.6 88.4041 106.593 88.5136V88.5136Z" fill="white"/>
<path d="M51.5246 82.5932C51.6767 82.2416 51.9743 81.9404 52.3697 81.738C52.7652 81.5356 53.2354 81.4438 53.7051 81.4772C54.4011 81.5131 54.3985 80.6559 53.7051 80.624C52.9981 80.5929 52.2979 80.7474 51.7142 81.0632C51.1305 81.379 50.6962 81.8384 50.4793 82.3694C50.2578 82.8909 51.3043 83.1147 51.522 82.5963L51.5246 82.5932Z" fill="black"/>
<path d="M62.6972 80.1824C62.8377 79.8276 63.1462 79.5291 63.5588 79.3488C63.9714 79.1685 64.4563 79.1203 64.9128 79.2143C65.0473 79.2357 65.1871 79.2161 65.3041 79.1596C65.421 79.103 65.5064 79.0136 65.5429 78.9094C65.5794 78.8052 65.5645 78.6939 65.501 78.5981C65.4375 78.5022 65.3303 78.4289 65.2009 78.3929C64.4676 78.2416 63.6885 78.3194 63.0264 78.61C62.3643 78.9007 61.8704 79.3816 61.648 79.9524C61.6208 80.0584 61.6456 80.1685 61.7174 80.2606C61.7892 80.3528 61.9027 80.42 62.035 80.4488C62.1673 80.4776 62.3085 80.4658 62.4302 80.4158C62.5519 80.3657 62.6449 80.2813 62.6906 80.1793L62.6972 80.1824Z" fill="black"/>
<path d="M62.7267 69.162L48.2375 71.8734C45.9528 72.3015 43.6954 72.6865 42.5146 74.5315C42.4611 74.6136 42.4299 74.6947 42.3842 74.7768C42.1992 73.7738 41.9932 72.7779 41.786 71.7995C41.5592 70.7431 41.2125 65.1385 39.2315 65.5368C37.3325 65.9136 39.3892 70.8067 39.6003 71.7872C40.6339 76.5827 41.8629 82.0107 39.7789 86.7324C39.4817 87.4059 35.9406 91.1901 38.7362 91.0649C40.5374 90.9838 41.8786 87.2344 42.2122 86.2272C42.9486 83.8218 43.1958 81.3397 42.9447 78.8732C43.6122 79.5475 44.4944 80.0705 45.5016 80.3891C46.5089 80.7078 47.6053 80.8107 48.6793 80.6874C53.3609 80.1648 58.0712 78.9297 62.6706 78.0694C65.1144 77.6115 67.6233 77.3055 68.8914 75.3189C69.3431 74.5826 69.5228 73.7611 69.41 72.9482C69.2972 72.1353 68.8965 71.3637 68.2536 70.7216C67.6107 70.0796 66.7516 69.5928 65.7743 69.3171C64.797 69.0413 63.7409 68.9875 62.7267 69.162V69.162Z" fill="#FF724C"/>
<path d="M22.9037 177.208C22.7122 177.208 22.5285 177.268 22.3931 177.375C22.2577 177.481 22.1816 177.626 22.1816 177.777C22.1816 177.928 22.2577 178.072 22.3931 178.179C22.5285 178.286 22.7122 178.346 22.9037 178.346C23.0952 178.346 23.2788 178.286 23.4143 178.179C23.5497 178.072 23.6257 177.928 23.6257 177.777C23.6257 177.626 23.5497 177.481 23.4143 177.375C23.2788 177.268 23.0952 177.208 22.9037 177.208V177.208Z" fill="black"/>
<path d="M41.7953 175.034C41.6038 175.034 41.4201 175.094 41.2847 175.201C41.1493 175.307 41.0732 175.452 41.0732 175.603C41.0732 175.754 41.1493 175.898 41.2847 176.005C41.4201 176.112 41.6038 176.172 41.7953 176.172C41.9868 176.172 42.1704 176.112 42.3059 176.005C42.4413 175.898 42.5173 175.754 42.5173 175.603C42.5173 175.452 42.4413 175.307 42.3059 175.201C42.1704 175.094 41.9868 175.034 41.7953 175.034Z" fill="black"/>
<path d="M43.0687 179.883C42.8772 179.883 42.6936 179.943 42.5582 180.049C42.4228 180.156 42.3467 180.301 42.3467 180.452C42.3467 180.602 42.4228 180.747 42.5582 180.854C42.6936 180.96 42.8772 181.02 43.0687 181.02C43.2602 181.02 43.4439 180.96 43.5793 180.854C43.7147 180.747 43.7908 180.602 43.7908 180.452C43.7908 180.301 43.7147 180.156 43.5793 180.049C43.4439 179.943 43.2602 179.883 43.0687 179.883V179.883Z" fill="black"/>
<path d="M54.7401 175.702C54.5486 175.702 54.365 175.762 54.2295 175.869C54.0941 175.975 54.0181 176.12 54.0181 176.271C54.0181 176.422 54.0941 176.566 54.2295 176.673C54.365 176.78 54.5486 176.84 54.7401 176.84C54.9316 176.84 55.1153 176.78 55.2507 176.673C55.3861 176.566 55.4622 176.422 55.4622 176.271C55.4622 176.12 55.3861 175.975 55.2507 175.869C55.1153 175.762 54.9316 175.702 54.7401 175.702V175.702Z" fill="black"/>
<path d="M88.0673 182.558C87.8758 182.558 87.6921 182.618 87.5567 182.724C87.4213 182.831 87.3452 182.976 87.3452 183.126C87.3452 183.277 87.4213 183.422 87.5567 183.529C87.6921 183.635 87.8758 183.695 88.0673 183.695C88.2588 183.695 88.4424 183.635 88.5778 183.529C88.7132 183.422 88.7893 183.277 88.7893 183.126C88.7893 182.976 88.7132 182.831 88.5778 182.724C88.4424 182.618 88.2588 182.558 88.0673 182.558Z" fill="black"/>
<path d="M104.2 177.375C104.009 177.375 103.825 177.435 103.69 177.542C103.554 177.648 103.478 177.793 103.478 177.944C103.478 178.095 103.554 178.239 103.69 178.346C103.825 178.453 104.009 178.513 104.2 178.513C104.392 178.513 104.575 178.453 104.711 178.346C104.846 178.239 104.922 178.095 104.922 177.944C104.922 177.793 104.846 177.648 104.711 177.542C104.575 177.435 104.392 177.375 104.2 177.375V177.375Z" fill="black"/>
<path d="M132.855 179.214C132.664 179.214 132.48 179.274 132.345 179.38C132.209 179.487 132.133 179.632 132.133 179.783C132.133 179.933 132.209 180.078 132.345 180.185C132.48 180.291 132.664 180.351 132.855 180.351C133.047 180.351 133.231 180.291 133.366 180.185C133.501 180.078 133.577 179.933 133.577 179.783C133.577 179.632 133.501 179.487 133.366 179.38C133.231 179.274 133.047 179.214 132.855 179.214Z" fill="black"/>
<path d="M147.929 173.529C147.737 173.529 147.553 173.589 147.418 173.696C147.283 173.803 147.207 173.947 147.207 174.098C147.207 174.249 147.283 174.394 147.418 174.5C147.553 174.607 147.737 174.667 147.929 174.667C148.12 174.667 148.304 174.607 148.439 174.5C148.575 174.394 148.651 174.249 148.651 174.098C148.651 173.947 148.575 173.803 148.439 173.696C148.304 173.589 148.12 173.529 147.929 173.529Z" fill="black"/>
<path d="M106.643 107.73V107.858C106.649 107.967 106.709 108.07 106.81 108.146C106.911 108.222 107.045 108.264 107.184 108.264C107.323 108.264 107.457 108.222 107.558 108.146C107.659 108.07 107.719 107.967 107.726 107.858V107.73C107.719 107.621 107.659 107.518 107.558 107.442C107.457 107.366 107.323 107.324 107.184 107.324C107.045 107.324 106.911 107.366 106.81 107.442C106.709 107.518 106.649 107.621 106.643 107.73Z" fill="black"/>
</svg>
