<svg width="25" height="25" viewBox="0 0 25 25" fill="none" xmlns="http://www.w3.org/2000/svg">
<path d="M13.0726 12.4975L24.882 0.688085C25.0393 0.530655 25.0393 0.275463 24.882 0.118034C24.7245 -0.0393447 24.4693 -0.0393447 24.3119 0.118034L12.5025 11.9274L0.693122 0.118034C0.532971 -0.0366234 0.277779 -0.0321888 0.123071 0.127962C-0.0278066 0.284181 -0.0278066 0.531865 0.123071 0.688085L11.9325 12.4975L0.123071 24.3069C-0.037079 24.4616 -0.0415136 24.7168 0.113194 24.8769C0.267902 25.0371 0.523094 25.0415 0.683245 24.8868C0.686621 24.8836 0.689897 24.8803 0.693122 24.8769L12.5025 13.0675L24.3119 24.8769C24.4721 25.0316 24.7273 25.0272 24.882 24.8671C25.0329 24.7108 25.0329 24.4631 24.882 24.3069L13.0726 12.4975Z" fill="black"/>
</svg>
