<svg width="150" height="150" viewBox="0 0 150 150" fill="none" xmlns="http://www.w3.org/2000/svg">
<path d="M75 0C33.7006 0 0 33.7063 0 75C0 116.299 33.7063 150 75 150C116.299 150 150 116.294 150 75C150 33.7006 116.294 0 75 0ZM75 141.211C38.4911 141.211 8.78906 111.509 8.78906 75C8.78906 38.4911 38.4911 8.78906 75 8.78906C111.509 8.78906 141.211 38.4911 141.211 75C141.211 111.509 111.509 141.211 75 141.211Z" fill="white"/>
<path d="M53.0273 118.368L118.079 75.0002L53.0273 31.6328V118.368ZM61.8164 48.0551L102.234 75.0002L61.8164 101.945V48.0551Z" fill="white"/>
</svg>
