<svg width="120" height="35" viewBox="0 0 120 35" fill="none" xmlns="http://www.w3.org/2000/svg">
<path d="M5.3 0.775H1.15V21H5.3V0.775ZM21.6697 0.775V14.425L11.7447 0.775H7.61973V21H11.7447L11.8697 7.25L21.6697 21H25.8197V0.775H21.6697ZM32.627 21V12.475H40.152V8.425H32.627V4.825H42.377V0.775H28.152V21H32.627ZM52.2381 0.349999C46.9631 0.349999 42.6131 4.125 42.6131 10.875C42.6131 17.775 46.9631 21.375 52.2381 21.375C57.5131 21.375 61.8881 17.8 61.8881 10.875C61.8881 4.25 57.7631 0.349999 52.2381 0.349999ZM52.2381 17.2C49.2381 17.2 46.9631 15.225 46.9631 10.875C46.9631 6.55 49.2631 4.55 52.2381 4.55C55.2381 4.55 57.5131 6.55 57.5131 10.875C57.5131 15.225 55.2631 17.2 52.2381 17.2ZM62.3576 0.775V4.825H69.4076V21H73.8826V4.825H80.9326V0.775H62.3576ZM91.0564 0.349999C85.7814 0.349999 81.4314 4.125 81.4314 10.875C81.4314 17.775 85.7814 21.375 91.0564 21.375C96.3314 21.375 100.706 17.8 100.706 10.875C100.706 4.25 96.5814 0.349999 91.0564 0.349999ZM91.0564 17.2C88.0564 17.2 85.7814 15.225 85.7814 10.875C85.7814 6.55 88.0814 4.55 91.0564 4.55C94.0564 4.55 96.3314 6.55 96.3314 10.875C96.3314 15.225 94.0814 17.2 91.0564 17.2ZM102.322 0.775V21H106.797V13.725C106.797 13.725 106.522 13.725 110.797 13.725C115.197 13.725 117.872 10.65 117.872 7.3C117.872 3.95 115.197 0.775 110.772 0.775H102.322ZM111.122 9.8H106.797V4.7H111.122C112.697 4.7 113.947 5.725 113.947 7.3C113.947 8.85 112.697 9.8 111.122 9.8Z" fill="white"/>
<line y1="31.5" x2="120" y2="31.5" stroke="#99D2E1" stroke-width="7"/>
</svg>
