<svg width="189" height="47" viewBox="0 0 189 47" fill="none" xmlns="http://www.w3.org/2000/svg">
<path d="M8.48 1.64H1.84V34H8.48V1.64ZM34.6716 1.64V23.48L18.7916 1.64H12.1916V34H18.7916L18.9916 12L34.6716 34H41.3116V1.64H34.6716ZM52.2031 34V20.36H64.2431V13.88H52.2031V8.12H67.8031V1.64H45.0431V34H52.2031ZM83.5809 0.959999C75.1409 0.959999 68.1809 7 68.1809 17.8C68.1809 28.84 75.1409 34.6 83.5809 34.6C92.0209 34.6 99.0209 28.88 99.0209 17.8C99.0209 7.2 92.4209 0.959999 83.5809 0.959999ZM83.5809 27.92C78.7809 27.92 75.1409 24.76 75.1409 17.8C75.1409 10.88 78.8209 7.68 83.5809 7.68C88.3809 7.68 92.0209 10.88 92.0209 17.8C92.0209 24.76 88.4209 27.92 83.5809 27.92ZM99.7722 1.64V8.12H111.052V34H118.212V8.12H129.492V1.64H99.7722ZM145.69 0.959999C137.25 0.959999 130.29 7 130.29 17.8C130.29 28.84 137.25 34.6 145.69 34.6C154.13 34.6 161.13 28.88 161.13 17.8C161.13 7.2 154.53 0.959999 145.69 0.959999ZM145.69 27.92C140.89 27.92 137.25 24.76 137.25 17.8C137.25 10.88 140.93 7.68 145.69 7.68C150.49 7.68 154.13 10.88 154.13 17.8C154.13 24.76 150.53 27.92 145.69 27.92ZM163.715 1.64V34H170.875V22.36C170.875 22.36 170.435 22.36 177.275 22.36C184.315 22.36 188.595 17.44 188.595 12.08C188.595 6.72 184.315 1.64 177.235 1.64H163.715ZM177.795 16.08H170.875V7.92H177.795C180.315 7.92 182.315 9.56 182.315 12.08C182.315 14.56 180.315 16.08 177.795 16.08Z" fill="white"/>
<line y1="43.5" x2="189" y2="43.5" stroke="#99D2E1" stroke-width="7"/>
</svg>
